%TF.GenerationSoftware,KiCad,Pcbnew,7.0.7-7.0.7~ubuntu22.04.1*%
%TF.CreationDate,2023-09-02T12:46:00+02:00*%
%TF.ProjectId,corne-cherry,636f726e-652d-4636-9865-7272792e6b69,3.0.1*%
%TF.SameCoordinates,Original*%
%TF.FileFunction,Drillmap*%
%TF.FilePolarity,Positive*%
%FSLAX45Y45*%
G04 Gerber Fmt 4.5, Leading zero omitted, Abs format (unit mm)*
G04 Created by KiCad (PCBNEW 7.0.7-7.0.7~ubuntu22.04.1) date 2023-09-02 12:46:00*
%MOMM*%
%LPD*%
G01*
G04 APERTURE LIST*
%ADD10C,0.200000*%
%ADD11C,0.040000*%
%ADD12C,0.081280*%
%ADD13C,0.100000*%
%ADD14C,0.130000*%
G04 APERTURE END LIST*
D10*
X1780750Y-8302031D02*
X1781250Y-8325000D01*
X1781250Y-8325000D02*
X1781230Y-8325200D01*
X1781230Y-8325200D02*
X1781230Y-8325200D01*
X1781230Y-8325200D02*
X1778960Y-8348300D01*
X1778960Y-8348300D02*
X1778960Y-8348300D01*
X1778960Y-8348300D02*
X1778960Y-8348300D01*
X1778960Y-8348300D02*
X1778960Y-8348400D01*
X1778960Y-8348400D02*
X1778860Y-8348800D01*
X1778860Y-8348800D02*
X1778770Y-8349300D01*
X1778770Y-8349300D02*
X1772080Y-8371400D01*
X1772080Y-8371400D02*
X1772060Y-8371500D01*
X1772060Y-8371500D02*
X1771880Y-8371900D01*
X1771880Y-8371900D02*
X1771700Y-8372400D01*
X1771700Y-8372400D02*
X1760820Y-8392800D01*
X1760820Y-8392800D02*
X1760790Y-8392900D01*
X1760790Y-8392900D02*
X1760540Y-8393200D01*
X1760540Y-8393200D02*
X1760280Y-8393600D01*
X1760280Y-8393600D02*
X1745640Y-8411600D01*
X1745640Y-8411600D02*
X1745640Y-8411600D01*
X1745640Y-8411600D02*
X1745640Y-8411600D01*
X1745640Y-8411600D02*
X1745590Y-8411600D01*
X1745590Y-8411600D02*
X1745270Y-8412000D01*
X1745270Y-8412000D02*
X1744950Y-8412300D01*
X1744950Y-8412300D02*
X1727090Y-8427100D01*
X1727090Y-8427100D02*
X1727040Y-8427100D01*
X1727040Y-8427100D02*
X1726660Y-8427300D01*
X1726660Y-8427300D02*
X1726280Y-8427600D01*
X1726280Y-8427600D02*
X1705900Y-8438600D01*
X1705900Y-8438600D02*
X1705900Y-8438600D01*
X1705900Y-8438600D02*
X1705900Y-8438600D01*
X1705900Y-8438600D02*
X1705830Y-8438700D01*
X1705830Y-8438700D02*
X1705420Y-8438800D01*
X1705420Y-8438800D02*
X1705000Y-8439000D01*
X1705000Y-8439000D02*
X1682860Y-8445900D01*
X1682860Y-8445900D02*
X1682790Y-8445900D01*
X1682790Y-8445900D02*
X1682350Y-8446000D01*
X1682350Y-8446000D02*
X1681900Y-8446000D01*
X1681900Y-8446000D02*
X1658850Y-8448500D01*
X1658850Y-8448500D02*
X1658780Y-8448500D01*
X1658780Y-8448500D02*
X1658560Y-8448500D01*
X1658560Y-8448500D02*
X1658350Y-8448500D01*
X1658350Y-8448500D02*
X1657750Y-8448500D01*
X1657750Y-8448500D02*
X1657740Y-8448500D01*
X1657740Y-8448500D02*
X1182520Y-8448500D01*
X1182520Y-8448500D02*
X1181940Y-8448500D01*
X1181940Y-8448500D02*
X1159630Y-8450800D01*
X1159630Y-8450800D02*
X1138430Y-8457400D01*
X1138430Y-8457400D02*
X1118910Y-8468000D01*
X1118910Y-8468000D02*
X1101800Y-8482100D01*
X1101800Y-8482100D02*
X1087780Y-8499300D01*
X1087780Y-8499300D02*
X1077360Y-8518900D01*
X1077360Y-8518900D02*
X1070940Y-8540200D01*
X1070940Y-8540200D02*
X1068750Y-8562500D01*
X1068750Y-11649700D02*
X1068750Y-11650300D01*
X1068750Y-11650300D02*
X1071100Y-11672600D01*
X1071100Y-11672600D02*
X1077660Y-11693800D01*
X1077660Y-11693800D02*
X1088220Y-11713300D01*
X1088220Y-11713300D02*
X1102360Y-11730400D01*
X1102360Y-11730400D02*
X1119570Y-11744500D01*
X1119570Y-11744500D02*
X1139160Y-11754900D01*
X1139160Y-11754900D02*
X1160410Y-11761300D01*
X1160410Y-11761300D02*
X1182740Y-11763500D01*
X1182740Y-11763500D02*
X28505750Y-11762600D01*
X28505550Y-1203850D02*
X1182520Y-1204750D01*
X1182520Y-1204750D02*
X1181940Y-1204750D01*
X1181940Y-1204750D02*
X1159630Y-1207100D01*
X1159630Y-1207100D02*
X1138430Y-1213660D01*
X1138430Y-1213660D02*
X1118910Y-1224220D01*
X1118910Y-1224220D02*
X1101800Y-1238370D01*
X1101800Y-1238370D02*
X1087780Y-1255570D01*
X1087780Y-1255570D02*
X1077360Y-1275160D01*
X1077360Y-1275160D02*
X1070940Y-1296410D01*
X1070940Y-1296410D02*
X1068750Y-1318750D01*
X1068750Y-1318750D02*
X1068750Y-1674730D01*
X1068750Y-1674730D02*
X1068750Y-1675310D01*
X1068750Y-1675310D02*
X1071100Y-1697620D01*
X1071100Y-1697620D02*
X1077660Y-1718820D01*
X1077660Y-1718820D02*
X1088220Y-1738350D01*
X1088220Y-1738350D02*
X1102360Y-1755450D01*
X1102360Y-1755450D02*
X1119570Y-1769480D01*
X1119570Y-1769480D02*
X1139160Y-1779900D01*
X1139160Y-1779900D02*
X1160410Y-1786310D01*
X1160410Y-1786310D02*
X1182740Y-1788500D01*
X1182740Y-1788500D02*
X5457740Y-1788500D01*
X5457740Y-1788500D02*
X5457990Y-1788530D01*
X5457990Y-1788530D02*
X5457990Y-1788530D01*
X5457990Y-1788530D02*
X5481050Y-1790790D01*
X5481050Y-1790790D02*
X5481050Y-1790790D01*
X5481050Y-1790790D02*
X5481050Y-1790790D01*
X5481050Y-1790790D02*
X5481120Y-1790790D01*
X5481120Y-1790790D02*
X5481560Y-1790890D01*
X5481560Y-1790890D02*
X5482010Y-1790980D01*
X5482010Y-1790980D02*
X5504200Y-1797680D01*
X5504200Y-1797680D02*
X5504260Y-1797700D01*
X5504260Y-1797700D02*
X5504680Y-1797870D01*
X5504680Y-1797870D02*
X5505100Y-1798050D01*
X5505100Y-1798050D02*
X5525560Y-1808930D01*
X5525560Y-1808930D02*
X5525560Y-1808930D01*
X5525560Y-1808930D02*
X5525560Y-1808930D01*
X5525560Y-1808930D02*
X5525620Y-1808960D01*
X5525620Y-1808960D02*
X5526000Y-1809220D01*
X5526000Y-1809220D02*
X5526380Y-1809470D01*
X5526380Y-1809470D02*
X5544340Y-1824120D01*
X5544340Y-1824120D02*
X5544390Y-1824160D01*
X5544390Y-1824160D02*
X5544700Y-1824480D01*
X5544700Y-1824480D02*
X5545030Y-1824800D01*
X5545030Y-1824800D02*
X5559800Y-1842660D01*
X5559800Y-1842660D02*
X5559840Y-1842710D01*
X5559840Y-1842710D02*
X5560090Y-1843090D01*
X5560090Y-1843090D02*
X5560350Y-1843470D01*
X5560350Y-1843470D02*
X5571370Y-1863860D01*
X5571370Y-1863860D02*
X5571370Y-1863860D01*
X5571370Y-1863860D02*
X5571370Y-1863860D01*
X5571370Y-1863860D02*
X5571400Y-1863920D01*
X5571400Y-1863920D02*
X5571570Y-1864340D01*
X5571570Y-1864340D02*
X5571750Y-1864760D01*
X5571750Y-1864760D02*
X5578600Y-1886900D01*
X5578600Y-1886900D02*
X5578620Y-1886960D01*
X5578620Y-1886960D02*
X5578710Y-1887410D01*
X5578710Y-1887410D02*
X5578800Y-1887850D01*
X5578800Y-1887850D02*
X5581220Y-1910900D01*
X5581220Y-1910900D02*
X5581230Y-1910970D01*
X5581230Y-1910970D02*
X5581220Y-1911190D01*
X5581220Y-1911190D02*
X5581250Y-1911410D01*
X5581250Y-1911410D02*
X5581250Y-1912000D01*
X5581250Y-1912000D02*
X5581250Y-1912010D01*
X5581250Y-1912010D02*
X5581750Y-2202025D01*
X6055750Y-8302107D02*
X6056250Y-8324700D01*
X6056250Y-8324700D02*
X6056250Y-8325300D01*
X6056250Y-8325300D02*
X6058600Y-8347600D01*
X6058600Y-8347600D02*
X6065160Y-8368800D01*
X6065160Y-8368800D02*
X6075720Y-8388300D01*
X6075720Y-8388300D02*
X6089860Y-8405400D01*
X6089860Y-8405400D02*
X6107070Y-8419500D01*
X6107070Y-8419500D02*
X6126660Y-8429900D01*
X6126660Y-8429900D02*
X6147910Y-8436300D01*
X6147910Y-8436300D02*
X6170240Y-8438500D01*
X6170240Y-8438500D02*
X6407740Y-8438500D01*
X6407740Y-8438500D02*
X6407990Y-8438500D01*
X6407990Y-8438500D02*
X6407990Y-8438500D01*
X6407990Y-8438500D02*
X6431050Y-8440800D01*
X6431050Y-8440800D02*
X6431050Y-8440800D01*
X6431050Y-8440800D02*
X6431050Y-8440800D01*
X6431050Y-8440800D02*
X6431120Y-8440800D01*
X6431120Y-8440800D02*
X6431560Y-8440900D01*
X6431560Y-8440900D02*
X6432010Y-8441000D01*
X6432010Y-8441000D02*
X6454200Y-8447700D01*
X6454200Y-8447700D02*
X6454260Y-8447700D01*
X6454260Y-8447700D02*
X6454680Y-8447900D01*
X6454680Y-8447900D02*
X6455100Y-8448000D01*
X6455100Y-8448000D02*
X6475560Y-8458900D01*
X6475560Y-8458900D02*
X6475560Y-8458900D01*
X6475560Y-8458900D02*
X6475560Y-8458900D01*
X6475560Y-8458900D02*
X6475620Y-8459000D01*
X6475620Y-8459000D02*
X6476000Y-8459200D01*
X6476000Y-8459200D02*
X6476380Y-8459500D01*
X6476380Y-8459500D02*
X6494340Y-8474100D01*
X6494340Y-8474100D02*
X6494390Y-8474200D01*
X6494390Y-8474200D02*
X6494700Y-8474500D01*
X6494700Y-8474500D02*
X6495030Y-8474800D01*
X6495030Y-8474800D02*
X6509800Y-8492700D01*
X6509800Y-8492700D02*
X6509840Y-8492700D01*
X6509840Y-8492700D02*
X6510090Y-8493100D01*
X6510090Y-8493100D02*
X6510350Y-8493500D01*
X6510350Y-8493500D02*
X6521370Y-8513900D01*
X6521370Y-8513900D02*
X6521370Y-8513900D01*
X6521370Y-8513900D02*
X6521370Y-8513900D01*
X6521370Y-8513900D02*
X6521400Y-8513900D01*
X6521400Y-8513900D02*
X6521570Y-8514300D01*
X6521570Y-8514300D02*
X6521750Y-8514800D01*
X6521750Y-8514800D02*
X6528600Y-8536900D01*
X6528600Y-8536900D02*
X6528620Y-8537000D01*
X6528620Y-8537000D02*
X6528710Y-8537400D01*
X6528710Y-8537400D02*
X6528800Y-8537900D01*
X6528800Y-8537900D02*
X6531220Y-8560900D01*
X6531220Y-8560900D02*
X6531230Y-8561000D01*
X6531230Y-8561000D02*
X6531220Y-8561200D01*
X6531220Y-8561200D02*
X6531250Y-8561400D01*
X6531250Y-8561400D02*
X6531250Y-8562000D01*
X6531250Y-8562000D02*
X6531250Y-8562000D01*
X6531250Y-8562000D02*
X6531250Y-11279700D01*
X6531250Y-11279700D02*
X6531250Y-11280300D01*
X6531250Y-11280300D02*
X6533600Y-11302600D01*
X6533600Y-11302600D02*
X6540160Y-11323800D01*
X6540160Y-11323800D02*
X6550720Y-11343300D01*
X6550720Y-11343300D02*
X6564860Y-11360400D01*
X6564860Y-11360400D02*
X6582070Y-11374500D01*
X6582070Y-11374500D02*
X6601660Y-11384900D01*
X6601660Y-11384900D02*
X6622910Y-11391300D01*
X6622910Y-11391300D02*
X6645240Y-11393500D01*
X6645450Y-11393400D02*
X23161950Y-11392600D01*
X19718050Y-1797600D02*
X9970050Y-1798500D01*
X9970050Y-1798500D02*
X9969450Y-1798500D01*
X9969450Y-1798500D02*
X9947150Y-1800850D01*
X9947150Y-1800850D02*
X9925950Y-1807410D01*
X9925950Y-1807410D02*
X9906450Y-1817970D01*
X9906450Y-1817970D02*
X9889350Y-1832120D01*
X9889350Y-1832120D02*
X9875250Y-1849320D01*
X9875250Y-1849320D02*
X9864850Y-1868910D01*
X9864850Y-1868910D02*
X9858450Y-1890160D01*
X9858450Y-1890160D02*
X9856250Y-1912500D01*
X9856250Y-1912500D02*
X9856750Y-2201873D01*
X2256750Y-8302031D02*
X2256250Y-8324700D01*
X2256250Y-8324700D02*
X2256250Y-8325300D01*
X2256250Y-8325300D02*
X2258600Y-8347600D01*
X2258600Y-8347600D02*
X2265160Y-8368800D01*
X2265160Y-8368800D02*
X2275720Y-8388300D01*
X2275720Y-8388300D02*
X2289860Y-8405400D01*
X2289860Y-8405400D02*
X2307070Y-8419500D01*
X2307070Y-8419500D02*
X2326660Y-8429900D01*
X2326660Y-8429900D02*
X2347910Y-8436300D01*
X2347910Y-8436300D02*
X2370240Y-8438500D01*
X2370240Y-8438500D02*
X5457480Y-8438500D01*
X5457480Y-8438500D02*
X5458060Y-8438500D01*
X5458060Y-8438500D02*
X5480370Y-8436200D01*
X5480370Y-8436200D02*
X5501570Y-8429600D01*
X5501570Y-8429600D02*
X5521090Y-8419000D01*
X5521090Y-8419000D02*
X5538200Y-8404900D01*
X5538200Y-8404900D02*
X5552220Y-8387700D01*
X5552220Y-8387700D02*
X5562640Y-8368100D01*
X5562640Y-8368100D02*
X5569060Y-8346800D01*
X5569060Y-8346800D02*
X5571250Y-8324500D01*
X5571250Y-8324500D02*
X5571750Y-8302031D01*
X9372750Y-2202025D02*
X9371250Y-1912270D01*
X9371250Y-1912270D02*
X9371250Y-1911690D01*
X9371250Y-1911690D02*
X9368900Y-1889380D01*
X9368900Y-1889380D02*
X9362340Y-1868180D01*
X9362340Y-1868180D02*
X9351780Y-1848660D01*
X9351780Y-1848660D02*
X9337630Y-1831560D01*
X9337630Y-1831560D02*
X9320430Y-1817530D01*
X9320430Y-1817530D02*
X9300840Y-1807110D01*
X9300840Y-1807110D02*
X9279590Y-1800690D01*
X9279590Y-1800690D02*
X9257260Y-1798500D01*
X9257260Y-1798500D02*
X6170020Y-1798500D01*
X6170020Y-1798500D02*
X6169440Y-1798500D01*
X6169440Y-1798500D02*
X6147130Y-1800850D01*
X6147130Y-1800850D02*
X6125930Y-1807410D01*
X6125930Y-1807410D02*
X6106410Y-1817970D01*
X6106410Y-1817970D02*
X6089300Y-1832120D01*
X6089300Y-1832120D02*
X6075280Y-1849320D01*
X6075280Y-1849320D02*
X6064860Y-1868910D01*
X6064860Y-1868910D02*
X6058440Y-1890160D01*
X6058440Y-1890160D02*
X6056250Y-1912500D01*
X6056250Y-1912500D02*
X6057750Y-2201873D01*
X1068750Y-8562500D02*
X1068750Y-11649700D01*
X23631750Y-2202673D02*
X23631950Y-1911370D01*
X23631950Y-1911370D02*
X23631950Y-1910790D01*
X23631950Y-1910790D02*
X23629650Y-1888480D01*
X23629650Y-1888480D02*
X23623050Y-1867280D01*
X23623050Y-1867280D02*
X23612550Y-1847760D01*
X23612550Y-1847760D02*
X23598350Y-1830660D01*
X23598350Y-1830660D02*
X23581150Y-1816630D01*
X23581150Y-1816630D02*
X23561550Y-1806210D01*
X23561550Y-1806210D02*
X23540350Y-1799790D01*
X23540350Y-1799790D02*
X23518050Y-1797600D01*
X23518050Y-1797600D02*
X20430750Y-1797600D01*
X20430750Y-1797600D02*
X20430150Y-1797600D01*
X20430150Y-1797600D02*
X20407850Y-1799950D01*
X20407850Y-1799950D02*
X20386650Y-1806510D01*
X20386650Y-1806510D02*
X20367150Y-1817070D01*
X20367150Y-1817070D02*
X20350050Y-1831220D01*
X20350050Y-1831220D02*
X20336050Y-1848420D01*
X20336050Y-1848420D02*
X20325650Y-1868010D01*
X20325650Y-1868010D02*
X20319150Y-1889260D01*
X20319150Y-1889260D02*
X20317050Y-1911600D01*
X20317050Y-1911600D02*
X20316750Y-2202825D01*
X28030250Y-8447600D02*
X28007150Y-8445300D01*
X28586450Y-11729000D02*
X28600450Y-11711800D01*
X19781150Y-1816630D02*
X19761550Y-1806210D01*
X19798350Y-1830660D02*
X19781150Y-1816630D01*
X28619450Y-8560800D02*
X28619550Y-11648600D01*
X19832750Y-2202673D02*
X19831950Y-1911370D01*
X19831950Y-1911370D02*
X19831950Y-1910790D01*
X19831950Y-1910790D02*
X19829650Y-1888480D01*
X19829650Y-1888480D02*
X19823050Y-1867280D01*
X19823050Y-1867280D02*
X19812550Y-1847760D01*
X19812550Y-1847760D02*
X19798350Y-1830660D01*
X19761550Y-1806210D02*
X19740350Y-1799790D01*
X19740350Y-1799790D02*
X19718050Y-1797600D01*
X24117750Y-8302731D02*
X24117050Y-8323800D01*
X24117050Y-8323800D02*
X24117050Y-8324400D01*
X24117050Y-8324400D02*
X24119350Y-8346700D01*
X24119350Y-8346700D02*
X24125950Y-8367900D01*
X24125950Y-8367900D02*
X24136450Y-8387400D01*
X24136450Y-8387400D02*
X24150650Y-8404500D01*
X24150650Y-8404500D02*
X24167850Y-8418600D01*
X24167850Y-8418600D02*
X24187450Y-8429000D01*
X24187450Y-8429000D02*
X24208650Y-8435400D01*
X24208650Y-8435400D02*
X24230950Y-8437600D01*
X24230950Y-8437600D02*
X27318250Y-8437600D01*
X27318250Y-8437600D02*
X27318850Y-8437600D01*
X27318850Y-8437600D02*
X27341150Y-8435300D01*
X27341150Y-8435300D02*
X27362350Y-8428700D01*
X27362350Y-8428700D02*
X27381850Y-8418100D01*
X27381850Y-8418100D02*
X27398950Y-8404000D01*
X27398950Y-8404000D02*
X27412950Y-8386800D01*
X27412950Y-8386800D02*
X27423350Y-8367200D01*
X27423350Y-8367200D02*
X27429850Y-8345900D01*
X27429850Y-8345900D02*
X27431950Y-8323600D01*
X27431950Y-8323600D02*
X27432750Y-8302731D01*
X23161950Y-11392600D02*
X23162550Y-11392600D01*
X23162550Y-11392600D02*
X23184850Y-11390300D01*
X23184850Y-11390300D02*
X23206050Y-11383700D01*
X23206050Y-11383700D02*
X23225550Y-11373100D01*
X23225550Y-11373100D02*
X23242650Y-11359000D01*
X23242650Y-11359000D02*
X23256750Y-11341800D01*
X23256750Y-11341800D02*
X23267150Y-11322200D01*
X23267150Y-11322200D02*
X23273550Y-11300900D01*
X23273550Y-11300900D02*
X23275750Y-11278600D01*
X23275750Y-11278600D02*
X23275750Y-8561100D01*
X23275750Y-8561100D02*
X23275750Y-8560900D01*
X23275750Y-8560900D02*
X23275750Y-8560900D01*
X23275750Y-8560900D02*
X23278050Y-8537800D01*
X23278050Y-8537800D02*
X23278050Y-8537800D01*
X23278050Y-8537800D02*
X23278050Y-8537800D01*
X23278050Y-8537800D02*
X23278050Y-8537700D01*
X23278050Y-8537700D02*
X23278150Y-8537300D01*
X23278150Y-8537300D02*
X23278250Y-8536800D01*
X23278250Y-8536800D02*
X23284950Y-8514700D01*
X23284950Y-8514700D02*
X23284950Y-8514600D01*
X23284950Y-8514600D02*
X23285150Y-8514200D01*
X23285150Y-8514200D02*
X23285250Y-8513800D01*
X23285250Y-8513800D02*
X23296150Y-8493300D01*
X23296150Y-8493300D02*
X23296150Y-8493300D01*
X23296150Y-8493300D02*
X23296150Y-8493300D01*
X23296150Y-8493300D02*
X23296250Y-8493200D01*
X23296250Y-8493200D02*
X23296450Y-8492900D01*
X23296450Y-8492900D02*
X23296750Y-8492500D01*
X23296750Y-8492500D02*
X23311350Y-8474500D01*
X23311350Y-8474500D02*
X23311450Y-8474500D01*
X23311450Y-8474500D02*
X23311750Y-8474100D01*
X23311750Y-8474100D02*
X23312050Y-8473800D01*
X23312050Y-8473800D02*
X23329950Y-8459100D01*
X23329950Y-8459100D02*
X23329950Y-8459000D01*
X23329950Y-8459000D02*
X23330350Y-8458800D01*
X23330350Y-8458800D02*
X23330750Y-8458500D01*
X23330750Y-8458500D02*
X23351150Y-8447500D01*
X23351150Y-8447500D02*
X23351150Y-8447500D01*
X23351150Y-8447500D02*
X23351150Y-8447500D01*
X23351150Y-8447500D02*
X23351150Y-8447400D01*
X23351150Y-8447400D02*
X23351550Y-8447300D01*
X23351550Y-8447300D02*
X23352050Y-8447100D01*
X23352050Y-8447100D02*
X23374150Y-8440300D01*
X23374150Y-8440300D02*
X23374150Y-8440300D01*
X23374150Y-8440300D02*
X23374250Y-8440200D01*
X23374250Y-8440200D02*
X23374650Y-8440100D01*
X23374650Y-8440100D02*
X23375050Y-8440100D01*
X23375050Y-8440100D02*
X23398150Y-8437600D01*
X23398150Y-8437600D02*
X23398250Y-8437600D01*
X23398250Y-8437600D02*
X23398450Y-8437600D01*
X23398450Y-8437600D02*
X23398650Y-8437600D01*
X23398650Y-8437600D02*
X23399250Y-8437600D01*
X23399250Y-8437600D02*
X23399250Y-8437600D01*
X23399250Y-8437600D02*
X23518250Y-8437600D01*
X23518250Y-8437600D02*
X23518850Y-8437600D01*
X23518850Y-8437600D02*
X23541150Y-8435300D01*
X23541150Y-8435300D02*
X23562350Y-8428700D01*
X23562350Y-8428700D02*
X23581850Y-8418100D01*
X23581850Y-8418100D02*
X23598950Y-8404000D01*
X23598950Y-8404000D02*
X23612950Y-8386800D01*
X23612950Y-8386800D02*
X23623350Y-8367200D01*
X23623350Y-8367200D02*
X23629850Y-8345900D01*
X23629850Y-8345900D02*
X23632050Y-8323600D01*
X23632050Y-8323600D02*
X23632750Y-8302807D01*
X24109250Y-1887730D02*
X24109350Y-1887290D01*
X24109350Y-1887290D02*
X24109450Y-1886840D01*
X24109450Y-1886840D02*
X24116150Y-1864650D01*
X24116150Y-1864650D02*
X24116150Y-1864590D01*
X24116150Y-1864590D02*
X24116350Y-1864170D01*
X24116350Y-1864170D02*
X24116550Y-1863750D01*
X24116550Y-1863750D02*
X24127450Y-1843290D01*
X24127450Y-1843290D02*
X24127450Y-1843290D01*
X24127450Y-1843290D02*
X24127450Y-1843290D01*
X24127450Y-1843290D02*
X24127450Y-1843230D01*
X24127450Y-1843230D02*
X24127750Y-1842850D01*
X24127750Y-1842850D02*
X24127950Y-1842480D01*
X24127950Y-1842480D02*
X24142650Y-1824520D01*
X24142650Y-1824520D02*
X24142650Y-1824460D01*
X24142650Y-1824460D02*
X24142950Y-1824150D01*
X24142950Y-1824150D02*
X24143350Y-1823820D01*
X24143350Y-1823820D02*
X24161150Y-1809050D01*
X24161150Y-1809050D02*
X24161250Y-1809010D01*
X24161250Y-1809010D02*
X24161550Y-1808760D01*
X24161550Y-1808760D02*
X24161950Y-1808510D01*
X24161950Y-1808510D02*
X24182350Y-1797480D01*
X24182350Y-1797480D02*
X24182350Y-1797480D01*
X24182350Y-1797480D02*
X24182350Y-1797480D01*
X24182350Y-1797480D02*
X24182450Y-1797450D01*
X24182450Y-1797450D02*
X24182850Y-1797280D01*
X24182850Y-1797280D02*
X24183250Y-1797100D01*
X24183250Y-1797100D02*
X24205350Y-1790250D01*
X24205350Y-1790250D02*
X24205350Y-1790250D01*
X24205350Y-1790250D02*
X24205450Y-1790230D01*
X24205450Y-1790230D02*
X24205950Y-1790150D01*
X24205950Y-1790150D02*
X24206350Y-1790050D01*
X24206350Y-1790050D02*
X24229350Y-1787630D01*
X24229350Y-1787630D02*
X24229450Y-1787630D01*
X24229450Y-1787630D02*
X24229650Y-1787630D01*
X24229650Y-1787630D02*
X24229950Y-1787600D01*
X24229950Y-1787600D02*
X24230450Y-1787600D01*
X24230450Y-1787600D02*
X24230550Y-1787600D01*
X24230550Y-1787600D02*
X28505750Y-1787600D01*
X28505750Y-1787600D02*
X28506350Y-1787600D01*
X28506350Y-1787600D02*
X28528650Y-1785260D01*
X28528650Y-1785260D02*
X28549850Y-1778690D01*
X28549850Y-1778690D02*
X28569350Y-1768140D01*
X28569350Y-1768140D02*
X28586450Y-1753990D01*
X28586450Y-1753990D02*
X28600450Y-1736790D01*
X28600450Y-1736790D02*
X28610850Y-1717190D01*
X28610850Y-1717190D02*
X28617350Y-1695940D01*
X28617350Y-1695940D02*
X28619550Y-1673610D01*
X28619550Y-1673610D02*
X28619450Y-1317620D01*
X28619450Y-1317620D02*
X28619450Y-1317040D01*
X28619450Y-1317040D02*
X28617150Y-1294730D01*
X28617150Y-1294730D02*
X28610550Y-1273530D01*
X28610550Y-1273530D02*
X28600050Y-1254010D01*
X28600050Y-1254010D02*
X28585850Y-1236910D01*
X28585850Y-1236910D02*
X28568650Y-1222880D01*
X28568650Y-1222880D02*
X28549050Y-1212460D01*
X28549050Y-1212460D02*
X28527850Y-1206040D01*
X28527850Y-1206040D02*
X28505550Y-1203850D01*
X24107750Y-2202825D02*
X24106950Y-1911110D01*
X24106950Y-1911110D02*
X24107050Y-1910860D01*
X24107050Y-1910860D02*
X24109250Y-1887800D01*
X24109250Y-1887800D02*
X24109250Y-1887800D01*
X24109250Y-1887800D02*
X24109250Y-1887800D01*
X24109250Y-1887800D02*
X24109250Y-1887730D01*
X27907050Y-8325100D02*
X27907050Y-8324900D01*
X27907050Y-8324900D02*
X27907050Y-8324700D01*
X27907050Y-8324700D02*
X27907050Y-8324100D01*
X27907050Y-8324100D02*
X27906950Y-8324100D01*
X27906950Y-8324100D02*
X27907750Y-8302807D01*
X27916550Y-8371300D02*
X27909650Y-8349200D01*
X27909650Y-8349200D02*
X27909650Y-8349100D01*
X27909650Y-8349100D02*
X27909550Y-8348700D01*
X27909550Y-8348700D02*
X27909450Y-8348300D01*
X27909450Y-8348300D02*
X27907050Y-8325200D01*
X27907050Y-8325200D02*
X27907050Y-8325100D01*
X28505750Y-11762600D02*
X28506350Y-11762600D01*
X28506350Y-11762600D02*
X28528650Y-11760300D01*
X28528650Y-11760300D02*
X28549850Y-11753700D01*
X28549850Y-11753700D02*
X28569350Y-11743100D01*
X28569350Y-11743100D02*
X28586450Y-11729000D01*
X28600450Y-11711800D02*
X28610850Y-11692200D01*
X28610850Y-11692200D02*
X28617350Y-11670900D01*
X28617350Y-11670900D02*
X28619550Y-11648600D01*
X28619450Y-8560800D02*
X28617150Y-8538500D01*
X28617150Y-8538500D02*
X28610550Y-8517300D01*
X28610550Y-8517300D02*
X28600050Y-8497800D01*
X28600050Y-8497800D02*
X28585850Y-8480700D01*
X28585850Y-8480700D02*
X28568650Y-8466600D01*
X28568650Y-8466600D02*
X28549050Y-8456200D01*
X28549050Y-8456200D02*
X28527850Y-8449800D01*
X28527850Y-8449800D02*
X28505550Y-8447600D01*
X28505550Y-8447600D02*
X28030550Y-8447600D01*
X28030550Y-8447600D02*
X28030250Y-8447600D01*
X28030250Y-8447600D02*
X28030250Y-8447600D01*
X28007150Y-8445300D02*
X28007150Y-8445300D01*
X28007150Y-8445300D02*
X28007150Y-8445300D01*
X28007150Y-8445300D02*
X28007150Y-8445300D01*
X28007150Y-8445300D02*
X28006650Y-8445200D01*
X28006650Y-8445200D02*
X28006250Y-8445100D01*
X28006250Y-8445100D02*
X27984050Y-8438400D01*
X27984050Y-8438400D02*
X27983950Y-8438400D01*
X27983950Y-8438400D02*
X27983550Y-8438200D01*
X27983550Y-8438200D02*
X27983150Y-8438100D01*
X27983150Y-8438100D02*
X27962650Y-8427200D01*
X27962650Y-8427200D02*
X27962650Y-8427200D01*
X27962650Y-8427200D02*
X27962650Y-8427100D01*
X27962650Y-8427100D02*
X27962250Y-8426900D01*
X27962250Y-8426900D02*
X27961850Y-8426600D01*
X27961850Y-8426600D02*
X27943950Y-8412000D01*
X27943950Y-8412000D02*
X27943950Y-8412000D01*
X27943950Y-8412000D02*
X27943950Y-8412000D01*
X27943950Y-8412000D02*
X27943850Y-8411900D01*
X27943850Y-8411900D02*
X27943550Y-8411600D01*
X27943550Y-8411600D02*
X27943250Y-8411300D01*
X27943250Y-8411300D02*
X27928450Y-8393400D01*
X27928450Y-8393400D02*
X27928450Y-8393400D01*
X27928450Y-8393400D02*
X27928150Y-8393000D01*
X27928150Y-8393000D02*
X27927950Y-8392600D01*
X27927950Y-8392600D02*
X27916850Y-8372200D01*
X27916850Y-8372200D02*
X27916850Y-8372200D01*
X27916850Y-8372200D02*
X27916850Y-8372200D01*
X27916850Y-8372200D02*
X27916850Y-8372200D01*
X27916850Y-8372200D02*
X27916650Y-8371800D01*
X27916650Y-8371800D02*
X27916550Y-8371300D01*
X18162950Y-10267800D02*
X18183119Y-10262377D01*
X18203571Y-10258200D01*
X18224248Y-10255278D01*
X18228406Y-10254846D01*
X15218179Y-8762572D02*
X15209231Y-8744685D01*
X15201683Y-8723223D01*
X15197065Y-8700959D01*
X15195456Y-8678190D01*
X15195470Y-8675323D01*
X19170618Y-2402571D02*
X19170618Y-2252711D01*
X17320484Y-2452609D02*
X19120580Y-2452609D01*
X15195470Y-2727817D02*
X15200402Y-2706148D01*
X15213664Y-2689248D01*
X15232967Y-2679406D01*
X15245458Y-2677830D01*
X15195522Y-2727690D02*
X15195522Y-8675095D01*
X24117750Y-8302731D02*
X27432750Y-8302731D01*
X28570463Y-2727817D02*
X28570640Y-8252693D01*
X24820588Y-2677653D02*
X28520450Y-2677830D01*
X21120574Y-1977629D02*
X22820594Y-1977629D01*
X21070536Y-2152635D02*
X21070536Y-2027667D01*
X19220656Y-2202673D02*
X19832750Y-2202673D01*
X18162950Y-10267800D02*
X16733542Y-11093908D01*
X17270700Y-2502647D02*
X17270471Y-2627818D01*
X17270471Y-2502824D02*
X17275397Y-2481146D01*
X17288657Y-2464238D01*
X17307962Y-2454390D01*
X17320458Y-2452812D01*
X24770550Y-2252711D02*
X24770550Y-2627615D01*
X22920670Y-2202673D02*
X23631750Y-2202673D01*
X22870632Y-2027667D02*
X22870632Y-2152635D01*
X15245559Y-2677653D02*
X17220459Y-2677830D01*
X28570463Y-8252820D02*
X28565527Y-8274496D01*
X28552258Y-8291398D01*
X28532947Y-8301236D01*
X28520451Y-8302807D01*
X28520451Y-8302807D02*
X28520450Y-8302807D01*
X28520450Y-2677830D02*
X28542128Y-2682755D01*
X28559037Y-2696015D01*
X28568885Y-2715322D01*
X28570463Y-2727817D01*
X28570463Y-2727817D02*
X28570463Y-2727817D01*
X24820461Y-2677830D02*
X24798783Y-2672905D01*
X24781874Y-2659644D01*
X24772026Y-2640338D01*
X24770449Y-2627843D01*
X24770449Y-2627843D02*
X24770449Y-2627818D01*
X24720462Y-2202825D02*
X24742131Y-2207758D01*
X24759030Y-2221019D01*
X24768873Y-2240321D01*
X24770449Y-2252813D01*
X22920466Y-2202825D02*
X22898788Y-2197900D01*
X22881880Y-2184640D01*
X22872032Y-2165333D01*
X22870454Y-2152838D01*
X22870454Y-2152838D02*
X22870454Y-2152813D01*
X22820467Y-1977807D02*
X22842143Y-1982743D01*
X22859045Y-1996012D01*
X22868883Y-2015323D01*
X22870454Y-2027819D01*
X22870454Y-2027819D02*
X22870454Y-2027819D01*
X21070459Y-2027819D02*
X21075384Y-2006141D01*
X21088645Y-1989232D01*
X21107951Y-1979384D01*
X21120447Y-1977807D01*
X21120447Y-1977807D02*
X21120447Y-1977807D01*
X21070459Y-2152813D02*
X21065534Y-2174491D01*
X21052274Y-2191400D01*
X21032967Y-2201248D01*
X21020472Y-2202825D01*
X21020472Y-2202825D02*
X21020447Y-2202825D01*
X19170465Y-2252813D02*
X19175398Y-2231143D01*
X19188659Y-2214244D01*
X19207961Y-2204401D01*
X19220452Y-2202825D01*
X19170465Y-2402825D02*
X19165529Y-2424500D01*
X19152260Y-2441402D01*
X19132949Y-2451241D01*
X19120453Y-2452812D01*
X16540730Y-11055961D02*
X15218128Y-8762725D01*
X16541040Y-11056423D02*
X16540730Y-11055961D01*
X16733542Y-11093908D02*
X16715136Y-11104387D01*
X16695861Y-11111787D01*
X16676044Y-11116172D01*
X16656010Y-11117605D01*
X16629527Y-11115034D01*
X16604014Y-11107479D01*
X16585982Y-11098634D01*
X16569258Y-11087133D01*
X16554168Y-11073042D01*
X16541040Y-11056423D01*
X21895451Y-9777809D02*
X18228406Y-10254846D01*
X21930807Y-9763179D02*
X21913452Y-9774462D01*
X21895451Y-9777809D01*
X22985109Y-8317463D02*
X21930807Y-9763179D01*
X17270471Y-2627818D02*
X17265546Y-2649496D01*
X17252285Y-2666405D01*
X17232978Y-2676253D01*
X17220483Y-2677830D01*
X17220483Y-2677830D02*
X17220459Y-2677830D01*
X6669034Y-8302007D02*
X6055750Y-8302107D01*
X1169050Y-8302007D02*
X1780750Y-8302031D01*
X4969038Y-2202025D02*
X5581750Y-2202025D01*
X8669053Y-2202025D02*
X9372750Y-2202025D01*
X12469017Y-2677030D02*
X12469041Y-2677030D01*
X12419029Y-2627018D02*
X12423954Y-2648696D01*
X12437215Y-2665605D01*
X12456521Y-2675453D01*
X12469017Y-2677030D01*
X6704390Y-8316663D02*
X7758693Y-9762379D01*
X7794049Y-9777009D02*
X11461094Y-10254046D01*
X12955958Y-11093108D02*
X12974364Y-11103587D01*
X12993639Y-11110987D01*
X13013456Y-11115372D01*
X13033490Y-11116805D01*
X13059973Y-11114234D01*
X13085486Y-11106679D01*
X13103518Y-11097834D01*
X13120242Y-11086333D01*
X13135332Y-11072242D01*
X13148460Y-11055623D01*
X13148460Y-11055623D02*
X13148770Y-11055161D01*
X13148770Y-11055161D02*
X14471372Y-8761925D01*
X10519035Y-2402025D02*
X10523971Y-2423700D01*
X10537240Y-2440602D01*
X10556551Y-2450441D01*
X10569047Y-2452012D01*
X10519035Y-2252013D02*
X10514102Y-2230343D01*
X10500841Y-2213444D01*
X10481539Y-2203601D01*
X10469048Y-2202025D01*
X8669028Y-2202025D02*
X8669053Y-2202025D01*
X8619041Y-2152013D02*
X8623966Y-2173691D01*
X8637226Y-2190600D01*
X8656533Y-2200448D01*
X8669028Y-2202025D01*
X8569053Y-1977007D02*
X8569053Y-1977007D01*
X8619041Y-2027019D02*
X8614116Y-2005341D01*
X8600855Y-1988432D01*
X8581549Y-1978584D01*
X8569053Y-1977007D01*
X6819046Y-2027019D02*
X6819046Y-2027019D01*
X6869033Y-1977007D02*
X6847357Y-1981943D01*
X6830455Y-1995212D01*
X6820616Y-2014523D01*
X6819046Y-2027019D01*
X6819046Y-2152038D02*
X6819046Y-2152013D01*
X6769033Y-2202025D02*
X6790712Y-2197100D01*
X6807620Y-2183840D01*
X6817468Y-2164533D01*
X6819046Y-2152038D01*
X4969038Y-2202025D02*
X4947369Y-2206958D01*
X4930469Y-2220219D01*
X4920627Y-2239521D01*
X4919051Y-2252013D01*
X4919051Y-2627043D02*
X4919051Y-2627018D01*
X4869039Y-2677030D02*
X4890717Y-2672105D01*
X4907626Y-2658844D01*
X4917474Y-2639538D01*
X4919051Y-2627043D01*
X1119037Y-2727017D02*
X1119037Y-2727017D01*
X1169050Y-2677030D02*
X1147372Y-2681955D01*
X1130463Y-2695215D01*
X1120615Y-2714522D01*
X1119037Y-2727017D01*
X1169049Y-8302007D02*
X1169050Y-8302007D01*
X1119037Y-8252020D02*
X1123973Y-8273696D01*
X1137242Y-8290598D01*
X1156553Y-8300436D01*
X1169049Y-8302007D01*
X14443940Y-2676853D02*
X12469041Y-2677030D01*
X6819046Y-2027019D02*
X6818868Y-2151835D01*
X6768830Y-2201873D02*
X6057750Y-2201873D01*
X4918950Y-2251911D02*
X4918950Y-2626815D01*
X12419029Y-2502024D02*
X12414103Y-2480346D01*
X12400843Y-2463438D01*
X12381538Y-2453590D01*
X12369042Y-2452012D01*
X12418800Y-2501847D02*
X12419029Y-2627018D01*
X11526550Y-10267000D02*
X12955958Y-11093108D01*
X10468844Y-2201873D02*
X9856750Y-2201873D01*
X8618964Y-2151835D02*
X8618964Y-2026867D01*
X8568926Y-1976829D02*
X6868906Y-1976829D01*
X4868912Y-2676853D02*
X1169050Y-2677030D01*
X1119037Y-2727017D02*
X1118860Y-8251893D01*
X5571750Y-8302031D02*
X2256750Y-8302031D01*
X14493978Y-2726890D02*
X14493978Y-8674295D01*
X14494030Y-2727017D02*
X14489097Y-2705348D01*
X14475836Y-2688448D01*
X14456533Y-2678606D01*
X14444042Y-2677030D01*
X12369016Y-2451809D02*
X10568920Y-2451809D01*
X10518882Y-2401771D02*
X10518882Y-2251911D01*
X14471321Y-8761772D02*
X14480269Y-8743885D01*
X14487817Y-8722423D01*
X14492435Y-8700159D01*
X14494044Y-8677390D01*
X14494030Y-8674523D01*
X22985109Y-8317463D02*
X23002462Y-8306165D01*
X23020466Y-8302807D01*
X7758693Y-9762379D02*
X7776048Y-9773662D01*
X7794049Y-9777009D01*
X6704390Y-8316663D02*
X6687037Y-8305365D01*
X6669034Y-8302007D01*
X11526550Y-10267000D02*
X11506380Y-10261577D01*
X11485928Y-10257400D01*
X11465252Y-10254478D01*
X11461094Y-10254046D01*
X21020447Y-2202825D02*
X20316750Y-2202825D01*
X23020466Y-8302807D02*
X23632750Y-8302807D01*
X24720462Y-2202825D02*
X24107750Y-2202825D01*
X28520450Y-8302807D02*
X27907750Y-8302807D01*
D11*
X1280750Y-3500500D02*
X1320750Y-3540500D01*
X1320750Y-3500500D02*
X1280750Y-3540500D01*
X1280750Y-5000500D02*
X1320750Y-5040500D01*
X1320750Y-5000500D02*
X1280750Y-5040500D01*
X1280750Y-5400500D02*
X1320750Y-5440500D01*
X1320750Y-5400500D02*
X1280750Y-5440500D01*
X1280750Y-6650500D02*
X1320750Y-6690500D01*
X1320750Y-6650500D02*
X1280750Y-6690500D01*
X1280750Y-6900500D02*
X1320750Y-6940500D01*
X1320750Y-6900500D02*
X1280750Y-6940500D01*
X2340750Y-8120500D02*
X2380750Y-8160500D01*
X2380750Y-8120500D02*
X2340750Y-8160500D01*
X2380750Y-6230500D02*
X2420750Y-6270500D01*
X2420750Y-6230500D02*
X2380750Y-6270500D01*
X2390750Y-3990500D02*
X2430750Y-4030500D01*
X2430750Y-3990500D02*
X2390750Y-4030500D01*
X2410750Y-4337001D02*
X2450750Y-4377001D01*
X2450750Y-4337001D02*
X2410750Y-4377001D01*
X2410750Y-5880500D02*
X2450750Y-5920500D01*
X2450750Y-5880500D02*
X2410750Y-5920500D01*
X2420273Y-4140999D02*
X2460273Y-4180999D01*
X2460273Y-4140999D02*
X2420273Y-4180999D01*
X3150750Y-5420500D02*
X3190750Y-5460500D01*
X3190750Y-5420500D02*
X3150750Y-5460500D01*
X3176484Y-4999491D02*
X3216484Y-5039491D01*
X3216484Y-4999491D02*
X3176484Y-5039491D01*
X3180750Y-3500500D02*
X3220750Y-3540500D01*
X3220750Y-3500500D02*
X3180750Y-3540500D01*
X3190750Y-6900500D02*
X3230750Y-6940500D01*
X3230750Y-6900500D02*
X3190750Y-6940500D01*
X3259695Y-6569445D02*
X3299695Y-6609445D01*
X3299695Y-6569445D02*
X3259695Y-6609445D01*
X3273250Y-5760500D02*
X3313250Y-5800500D01*
X3313250Y-5760500D02*
X3273250Y-5800500D01*
X3283250Y-3840500D02*
X3323250Y-3880500D01*
X3323250Y-3840500D02*
X3283250Y-3880500D01*
X3290750Y-4850500D02*
X3330750Y-4890500D01*
X3330750Y-4850500D02*
X3290750Y-4890500D01*
X3360750Y-3900500D02*
X3400750Y-3940500D01*
X3400750Y-3900500D02*
X3360750Y-3940500D01*
X3452750Y-6252000D02*
X3492750Y-6292000D01*
X3492750Y-6252000D02*
X3452750Y-6292000D01*
X3490750Y-7910500D02*
X3530750Y-7950500D01*
X3530750Y-7910500D02*
X3490750Y-7950500D01*
X3520750Y-4580500D02*
X3560750Y-4620500D01*
X3560750Y-4580500D02*
X3520750Y-4620500D01*
X3520750Y-6020500D02*
X3560750Y-6060500D01*
X3560750Y-6020500D02*
X3520750Y-6060500D01*
X3530750Y-4100500D02*
X3570750Y-4140500D01*
X3570750Y-4100500D02*
X3530750Y-4140500D01*
X3530750Y-6490500D02*
X3570750Y-6530500D01*
X3570750Y-6490500D02*
X3530750Y-6530500D01*
X3690750Y-8115500D02*
X3730750Y-8155500D01*
X3730750Y-8115500D02*
X3690750Y-8155500D01*
X4250750Y-5850500D02*
X4290750Y-5890500D01*
X4290750Y-5850500D02*
X4250750Y-5890500D01*
X4250750Y-7750500D02*
X4290750Y-7790500D01*
X4290750Y-7750500D02*
X4250750Y-7790500D01*
X4270750Y-3950500D02*
X4310750Y-3990500D01*
X4310750Y-3950500D02*
X4270750Y-3990500D01*
X5010750Y-3490500D02*
X5050750Y-3530500D01*
X5050750Y-3490500D02*
X5010750Y-3530500D01*
X5080750Y-3030500D02*
X5120750Y-3070500D01*
X5120750Y-3030500D02*
X5080750Y-3070500D01*
X5080750Y-4530500D02*
X5120750Y-4570500D01*
X5120750Y-4530500D02*
X5080750Y-4570500D01*
X5080750Y-4930500D02*
X5120750Y-4970500D01*
X5120750Y-4930500D02*
X5080750Y-4970500D01*
X5080750Y-6430500D02*
X5120750Y-6470500D01*
X5120750Y-6430500D02*
X5080750Y-6470500D01*
X5090750Y-2630500D02*
X5130750Y-2670500D01*
X5130750Y-2630500D02*
X5090750Y-2670500D01*
X5237708Y-6097458D02*
X5277708Y-6137458D01*
X5277708Y-6097458D02*
X5237708Y-6137458D01*
X6047717Y-7533533D02*
X6087717Y-7573533D01*
X6087717Y-7533533D02*
X6047717Y-7573533D01*
X6050750Y-5645500D02*
X6090750Y-5685500D01*
X6090750Y-5645500D02*
X6050750Y-5685500D01*
X6170750Y-3510500D02*
X6210750Y-3550500D01*
X6210750Y-3510500D02*
X6170750Y-3550500D01*
X6170750Y-7700500D02*
X6210750Y-7740500D01*
X6210750Y-7700500D02*
X6170750Y-7740500D01*
X6183251Y-7300500D02*
X6223251Y-7340500D01*
X6223251Y-7300500D02*
X6183251Y-7340500D01*
X6190751Y-3775499D02*
X6230751Y-3815499D01*
X6230751Y-3775499D02*
X6190751Y-3815499D01*
X6203251Y-5440500D02*
X6243251Y-5480500D01*
X6243251Y-5440500D02*
X6203251Y-5480500D01*
X6218750Y-3604695D02*
X6258750Y-3644695D01*
X6258750Y-3604695D02*
X6218750Y-3644695D01*
X6918250Y-6110500D02*
X6958250Y-6150500D01*
X6958250Y-6110500D02*
X6918250Y-6150500D01*
X6918250Y-6820500D02*
X6958250Y-6860500D01*
X6958250Y-6820500D02*
X6918250Y-6860500D01*
X6980750Y-2790500D02*
X7020750Y-2830500D01*
X7020750Y-2790500D02*
X6980750Y-2830500D01*
X6980750Y-4290500D02*
X7020750Y-4330500D01*
X7020750Y-4290500D02*
X6980750Y-4330500D01*
X6980750Y-4690500D02*
X7020750Y-4730500D01*
X7020750Y-4690500D02*
X6980750Y-4730500D01*
X6980750Y-6190500D02*
X7020750Y-6230500D01*
X7020750Y-6190500D02*
X6980750Y-6230500D01*
X6980750Y-6550500D02*
X7020750Y-6590500D01*
X7020750Y-6550500D02*
X6980750Y-6590500D01*
X7020750Y-5950500D02*
X7060750Y-5990500D01*
X7060750Y-5950500D02*
X7020750Y-5990500D01*
X7043250Y-3140500D02*
X7083250Y-3180500D01*
X7083250Y-3140500D02*
X7043250Y-3180500D01*
X7043250Y-6950500D02*
X7083250Y-6990500D01*
X7083250Y-6950500D02*
X7043250Y-6990500D01*
X7050750Y-6820500D02*
X7090750Y-6860500D01*
X7090750Y-6820500D02*
X7050750Y-6860500D01*
X7080750Y-3230500D02*
X7120750Y-3270500D01*
X7120750Y-3230500D02*
X7080750Y-3270500D01*
X7255750Y-7424000D02*
X7295750Y-7464000D01*
X7295750Y-7424000D02*
X7255750Y-7464000D01*
X7310750Y-3390500D02*
X7350750Y-3430500D01*
X7350750Y-3390500D02*
X7310750Y-3430500D01*
X7320750Y-5290500D02*
X7360750Y-5330500D01*
X7360750Y-5290500D02*
X7320750Y-5330500D01*
X7320750Y-7190500D02*
X7360750Y-7230500D01*
X7360750Y-7190500D02*
X7320750Y-7230500D01*
X7330750Y-3870500D02*
X7370750Y-3910500D01*
X7370750Y-3870500D02*
X7330750Y-3910500D01*
X7330750Y-7660500D02*
X7370750Y-7700500D01*
X7370750Y-7660500D02*
X7330750Y-7700500D01*
X7930750Y-8410500D02*
X7970750Y-8450500D01*
X7970750Y-8410500D02*
X7930750Y-8450500D01*
X8060750Y-3240500D02*
X8100750Y-3280500D01*
X8100750Y-3240500D02*
X8060750Y-3280500D01*
X8060750Y-5150500D02*
X8100750Y-5190500D01*
X8100750Y-5150500D02*
X8060750Y-5190500D01*
X8060750Y-7050500D02*
X8100750Y-7090500D01*
X8100750Y-7050500D02*
X8060750Y-7090500D01*
X8270750Y-9390500D02*
X8310750Y-9430500D01*
X8310750Y-9390500D02*
X8270750Y-9430500D01*
X8880750Y-3030500D02*
X8920750Y-3070500D01*
X8920750Y-3030500D02*
X8880750Y-3070500D01*
X8880750Y-4530500D02*
X8920750Y-4570500D01*
X8920750Y-4530500D02*
X8880750Y-4570500D01*
X8880750Y-4930500D02*
X8920750Y-4970500D01*
X8920750Y-4930500D02*
X8880750Y-4970500D01*
X8880750Y-6430500D02*
X8920750Y-6470500D01*
X8920750Y-6430500D02*
X8880750Y-6470500D01*
X8880750Y-6830500D02*
X8920750Y-6870500D01*
X8920750Y-6830500D02*
X8880750Y-6870500D01*
X8920750Y-6010500D02*
X8960750Y-6050500D01*
X8960750Y-6010500D02*
X8920750Y-6050500D01*
X9010750Y-9250500D02*
X9050750Y-9290500D01*
X9050750Y-9250500D02*
X9010750Y-9290500D01*
X9840750Y-5655500D02*
X9880750Y-5695500D01*
X9880750Y-5655500D02*
X9840750Y-5695500D01*
X9860750Y-7550500D02*
X9900750Y-7590500D01*
X9900750Y-7550500D02*
X9860750Y-7590500D01*
X9968250Y-3725500D02*
X10008250Y-3765500D01*
X10008250Y-3725500D02*
X9968250Y-3765500D01*
X9970750Y-7310500D02*
X10010750Y-7350500D01*
X10010750Y-7310500D02*
X9970750Y-7350500D01*
X9980750Y-8500500D02*
X10020750Y-8540500D01*
X10020750Y-8500500D02*
X9980750Y-8540500D01*
X10024370Y-3480343D02*
X10064370Y-3520343D01*
X10064370Y-3480343D02*
X10024370Y-3520343D01*
X10039750Y-3568000D02*
X10079750Y-3608000D01*
X10079750Y-3568000D02*
X10039750Y-3608000D01*
X10065750Y-5470500D02*
X10105750Y-5510500D01*
X10105750Y-5470500D02*
X10065750Y-5510500D01*
X10250750Y-9540500D02*
X10290750Y-9580500D01*
X10290750Y-9540500D02*
X10250750Y-9580500D01*
X10780750Y-3260500D02*
X10820750Y-3300500D01*
X10820750Y-3260500D02*
X10780750Y-3300500D01*
X10780750Y-4770500D02*
X10820750Y-4810500D01*
X10820750Y-4770500D02*
X10780750Y-4810500D01*
X10780750Y-5160500D02*
X10820750Y-5200500D01*
X10820750Y-5160500D02*
X10780750Y-5200500D01*
X10780750Y-6660500D02*
X10820750Y-6700500D01*
X10820750Y-6660500D02*
X10780750Y-6700500D01*
X10780750Y-7060500D02*
X10820750Y-7100500D01*
X10820750Y-7060500D02*
X10780750Y-7100500D01*
X10820750Y-6260500D02*
X10860750Y-6300500D01*
X10860750Y-6260500D02*
X10820750Y-6300500D01*
X10843250Y-7420500D02*
X10883250Y-7460500D01*
X10883250Y-7420500D02*
X10843250Y-7460500D01*
X10866251Y-3619372D02*
X10906251Y-3659372D01*
X10906251Y-3619372D02*
X10866251Y-3659372D01*
X10936252Y-3660500D02*
X10976252Y-3700500D01*
X10976252Y-3660500D02*
X10936252Y-3700500D01*
X11000750Y-9650500D02*
X11040750Y-9690500D01*
X11040750Y-9650500D02*
X11000750Y-9690500D01*
X11110750Y-5760500D02*
X11150750Y-5800500D01*
X11150750Y-5760500D02*
X11110750Y-5800500D01*
X11120750Y-3870500D02*
X11160750Y-3910500D01*
X11160750Y-3870500D02*
X11120750Y-3910500D01*
X11120750Y-7670500D02*
X11160750Y-7710500D01*
X11160750Y-7670500D02*
X11120750Y-7710500D01*
X11120750Y-8160500D02*
X11160750Y-8200500D01*
X11160750Y-8160500D02*
X11120750Y-8200500D01*
X11130750Y-4350500D02*
X11170750Y-4390500D01*
X11170750Y-4350500D02*
X11130750Y-4390500D01*
X11770750Y-5890500D02*
X11810750Y-5930500D01*
X11810750Y-5890500D02*
X11770750Y-5930500D01*
X11840750Y-5620500D02*
X11880750Y-5660500D01*
X11880750Y-5620500D02*
X11840750Y-5660500D01*
X11860750Y-3720500D02*
X11900750Y-3760500D01*
X11900750Y-3720500D02*
X11860750Y-3760500D01*
X11860750Y-7520500D02*
X11900750Y-7560500D01*
X11900750Y-7520500D02*
X11860750Y-7560500D01*
X11870750Y-5490500D02*
X11910750Y-5530500D01*
X11910750Y-5490500D02*
X11870750Y-5530500D01*
X11880750Y-8240500D02*
X11920750Y-8280500D01*
X11920750Y-8240500D02*
X11880750Y-8280500D01*
X12240750Y-9880500D02*
X12280750Y-9920500D01*
X12280750Y-9880500D02*
X12240750Y-9920500D01*
X12340750Y-5400500D02*
X12380750Y-5440500D01*
X12380750Y-5400500D02*
X12340750Y-5440500D01*
X12440750Y-6880500D02*
X12480750Y-6920500D01*
X12480750Y-6880500D02*
X12440750Y-6920500D01*
X12460750Y-3610500D02*
X12500750Y-3650500D01*
X12500750Y-3610500D02*
X12460750Y-3650500D01*
X12460750Y-7060500D02*
X12500750Y-7100500D01*
X12500750Y-7060500D02*
X12460750Y-7100500D01*
X12475751Y-4070500D02*
X12515751Y-4110500D01*
X12515751Y-4070500D02*
X12475751Y-4110500D01*
X12609750Y-7710500D02*
X12649750Y-7750500D01*
X12649750Y-7710500D02*
X12609750Y-7750500D01*
X12629374Y-8618235D02*
X12669374Y-8658235D01*
X12669374Y-8618235D02*
X12629374Y-8658235D01*
X13250750Y-10090500D02*
X13290750Y-10130500D01*
X13290750Y-10090500D02*
X13250750Y-10130500D01*
X13500069Y-9391177D02*
X13540069Y-9431177D01*
X13540069Y-9391177D02*
X13500069Y-9431177D01*
X13534750Y-7876000D02*
X13574750Y-7916000D01*
X13574750Y-7876000D02*
X13534750Y-7916000D01*
X16013750Y-9443500D02*
X16053750Y-9483500D01*
X16053750Y-9443500D02*
X16013750Y-9483500D01*
X16160750Y-7750500D02*
X16200750Y-7790500D01*
X16200750Y-7750500D02*
X16160750Y-7790500D01*
X16500750Y-10025500D02*
X16540750Y-10065500D01*
X16540750Y-10025500D02*
X16500750Y-10065500D01*
X16668750Y-8647500D02*
X16708750Y-8687500D01*
X16708750Y-8647500D02*
X16668750Y-8687500D01*
X16691056Y-8542806D02*
X16731056Y-8582806D01*
X16731056Y-8542806D02*
X16691056Y-8582806D01*
X17086376Y-3118902D02*
X17126376Y-3158902D01*
X17126376Y-3118902D02*
X17086376Y-3158902D01*
X17158750Y-6069500D02*
X17198750Y-6109500D01*
X17198750Y-6069500D02*
X17158750Y-6109500D01*
X17165749Y-4010500D02*
X17205749Y-4050500D01*
X17205749Y-4010500D02*
X17165749Y-4050500D01*
X17173450Y-3600500D02*
X17213450Y-3640500D01*
X17213450Y-3600500D02*
X17173450Y-3640500D01*
X17233750Y-5851500D02*
X17273750Y-5891500D01*
X17273750Y-5851500D02*
X17233750Y-5891500D01*
X17250750Y-5184500D02*
X17290750Y-5224500D01*
X17290750Y-5184500D02*
X17250750Y-5224500D01*
X17315750Y-4081500D02*
X17355750Y-4121500D01*
X17355750Y-4081500D02*
X17315750Y-4121500D01*
X17315750Y-4606500D02*
X17355750Y-4646500D01*
X17355750Y-4606500D02*
X17315750Y-4646500D01*
X17409750Y-6281500D02*
X17449750Y-6321500D01*
X17449750Y-6281500D02*
X17409750Y-6321500D01*
X17421750Y-7047500D02*
X17461750Y-7087500D01*
X17461750Y-7047500D02*
X17421750Y-7087500D01*
X17430750Y-3260500D02*
X17470750Y-3300500D01*
X17470750Y-3260500D02*
X17430750Y-3300500D01*
X17430750Y-4760500D02*
X17470750Y-4800500D01*
X17470750Y-4760500D02*
X17430750Y-4800500D01*
X17430750Y-6670500D02*
X17470750Y-6710500D01*
X17470750Y-6670500D02*
X17430750Y-6710500D01*
X17440750Y-5170500D02*
X17480750Y-5210500D01*
X17480750Y-5170500D02*
X17440750Y-5210500D01*
X17503250Y-5821501D02*
X17543250Y-5861501D01*
X17543250Y-5821501D02*
X17503250Y-5861501D01*
X17503250Y-6230000D02*
X17543250Y-6270000D01*
X17543250Y-6230000D02*
X17503250Y-6270000D01*
X17678750Y-7448500D02*
X17718750Y-7488500D01*
X17718750Y-7448500D02*
X17678750Y-7488500D01*
X17683750Y-8218500D02*
X17723750Y-8258500D01*
X17723750Y-8218500D02*
X17683750Y-8258500D01*
X17684249Y-8345500D02*
X17724249Y-8385500D01*
X17724249Y-8345500D02*
X17684249Y-8385500D01*
X17705344Y-4426939D02*
X17745344Y-4466939D01*
X17745344Y-4426939D02*
X17705344Y-4466939D01*
X17750750Y-7683500D02*
X17790750Y-7723500D01*
X17790750Y-7683500D02*
X17750750Y-7723500D01*
X17757750Y-3644500D02*
X17797750Y-3684500D01*
X17797750Y-3644500D02*
X17757750Y-3684500D01*
X17773750Y-5766500D02*
X17813750Y-5806500D01*
X17813750Y-5766500D02*
X17773750Y-5806500D01*
X17783751Y-3870500D02*
X17823751Y-3910500D01*
X17823751Y-3870500D02*
X17783751Y-3910500D01*
X18098750Y-8869500D02*
X18138750Y-8909500D01*
X18138750Y-8869500D02*
X18098750Y-8909500D01*
X18513750Y-5618500D02*
X18553750Y-5658500D01*
X18553750Y-5618500D02*
X18513750Y-5658500D01*
X18516750Y-7532500D02*
X18556750Y-7572500D01*
X18556750Y-7532500D02*
X18516750Y-7572500D01*
X18674750Y-9728500D02*
X18714750Y-9768500D01*
X18714750Y-9728500D02*
X18674750Y-9768500D01*
X19293750Y-6167500D02*
X19333750Y-6207500D01*
X19333750Y-6167500D02*
X19293750Y-6207500D01*
X19330750Y-3020500D02*
X19370750Y-3060500D01*
X19370750Y-3020500D02*
X19330750Y-3060500D01*
X19330750Y-4530500D02*
X19370750Y-4570500D01*
X19370750Y-4530500D02*
X19330750Y-4570500D01*
X19330750Y-4910500D02*
X19370750Y-4950500D01*
X19370750Y-4910500D02*
X19330750Y-4950500D01*
X19330750Y-6430500D02*
X19370750Y-6470500D01*
X19370750Y-6430500D02*
X19330750Y-6470500D01*
X19331750Y-6812500D02*
X19371750Y-6852500D01*
X19371750Y-6812500D02*
X19331750Y-6852500D01*
X19665750Y-7416500D02*
X19705750Y-7456500D01*
X19705750Y-7416500D02*
X19665750Y-7456500D01*
X19670750Y-5516500D02*
X19710750Y-5556500D01*
X19710750Y-5516500D02*
X19670750Y-5556500D01*
X20288750Y-8413500D02*
X20328750Y-8453500D01*
X20328750Y-8413500D02*
X20288750Y-8453500D01*
X20412750Y-7303500D02*
X20452750Y-7343500D01*
X20452750Y-7303500D02*
X20412750Y-7343500D01*
X20419750Y-5394500D02*
X20459750Y-5434500D01*
X20459750Y-5394500D02*
X20419750Y-5434500D01*
X20423750Y-3498500D02*
X20463750Y-3538500D01*
X20463750Y-3498500D02*
X20423750Y-3538500D01*
X21190750Y-5882000D02*
X21230750Y-5922000D01*
X21230750Y-5882000D02*
X21190750Y-5922000D01*
X21230750Y-2780500D02*
X21270750Y-2820500D01*
X21270750Y-2780500D02*
X21230750Y-2820500D01*
X21230750Y-4290500D02*
X21270750Y-4330500D01*
X21270750Y-4290500D02*
X21230750Y-4330500D01*
X21230750Y-4690500D02*
X21270750Y-4730500D01*
X21270750Y-4690500D02*
X21230750Y-4730500D01*
X21230750Y-6200500D02*
X21270750Y-6240500D01*
X21270750Y-6200500D02*
X21230750Y-6240500D01*
X21235750Y-6578500D02*
X21275750Y-6618500D01*
X21275750Y-6578500D02*
X21235750Y-6618500D01*
X21294750Y-5878000D02*
X21334750Y-5918000D01*
X21334750Y-5878000D02*
X21294750Y-5918000D01*
X21356750Y-9253500D02*
X21396750Y-9293500D01*
X21396750Y-9253500D02*
X21356750Y-9293500D01*
X21412750Y-7556500D02*
X21452750Y-7596500D01*
X21452750Y-7556500D02*
X21412750Y-7596500D01*
X21495249Y-3950886D02*
X21535249Y-3990886D01*
X21535249Y-3950886D02*
X21495249Y-3990886D01*
X21501750Y-7757500D02*
X21541750Y-7797500D01*
X21541750Y-7757500D02*
X21501750Y-7797500D01*
X21505750Y-6971500D02*
X21545750Y-7011500D01*
X21545750Y-6971500D02*
X21505750Y-7011500D01*
X21509750Y-3185500D02*
X21549750Y-3225500D01*
X21549750Y-3185500D02*
X21509750Y-3225500D01*
X21569750Y-5295500D02*
X21609750Y-5335500D01*
X21609750Y-5295500D02*
X21569750Y-5335500D01*
X21580750Y-7193500D02*
X21620750Y-7233500D01*
X21620750Y-7193500D02*
X21580750Y-7233500D01*
X21584750Y-3390500D02*
X21624750Y-3430500D01*
X21624750Y-3390500D02*
X21584750Y-3430500D01*
X22303217Y-5169033D02*
X22343217Y-5209033D01*
X22343217Y-5169033D02*
X22303217Y-5209033D01*
X22306717Y-7052533D02*
X22346717Y-7092533D01*
X22346717Y-7052533D02*
X22306717Y-7092533D01*
X23103445Y-5831305D02*
X23143445Y-5871305D01*
X23143445Y-5831305D02*
X23103445Y-5871305D01*
X23130750Y-3010500D02*
X23170750Y-3050500D01*
X23170750Y-3010500D02*
X23130750Y-3050500D01*
X23130750Y-4530500D02*
X23170750Y-4570500D01*
X23170750Y-4530500D02*
X23130750Y-4570500D01*
X23140750Y-4930500D02*
X23180750Y-4970500D01*
X23180750Y-4930500D02*
X23140750Y-4970500D01*
X23140750Y-6430500D02*
X23180750Y-6470500D01*
X23180750Y-6430500D02*
X23140750Y-6470500D01*
X23470750Y-7415500D02*
X23510750Y-7455500D01*
X23510750Y-7415500D02*
X23470750Y-7455500D01*
X23477750Y-5515500D02*
X23517750Y-5555500D01*
X23517750Y-5515500D02*
X23477750Y-5555500D01*
X24207750Y-5409500D02*
X24247750Y-5449500D01*
X24247750Y-5409500D02*
X24207750Y-5449500D01*
X24213750Y-3494500D02*
X24253750Y-3534500D01*
X24253750Y-3494500D02*
X24213750Y-3534500D01*
X24979750Y-6390001D02*
X25019750Y-6430001D01*
X25019750Y-6390001D02*
X24979750Y-6430001D01*
X25030750Y-3490500D02*
X25070750Y-3530500D01*
X25070750Y-3490500D02*
X25030750Y-3530500D01*
X25030750Y-5010500D02*
X25070750Y-5050500D01*
X25070750Y-5010500D02*
X25030750Y-5050500D01*
X25030750Y-5400500D02*
X25070750Y-5440500D01*
X25070750Y-5400500D02*
X25030750Y-5440500D01*
X25030750Y-6900500D02*
X25070750Y-6940500D01*
X25070750Y-6900500D02*
X25030750Y-6940500D01*
X25297249Y-6553402D02*
X25337249Y-6593402D01*
X25337249Y-6553402D02*
X25297249Y-6593402D01*
X25311499Y-4675665D02*
X25351499Y-4715665D01*
X25351499Y-4675665D02*
X25311499Y-4715665D01*
X25337750Y-5780500D02*
X25377750Y-5820500D01*
X25377750Y-5780500D02*
X25337750Y-5820500D01*
X25355750Y-3874500D02*
X25395750Y-3914500D01*
X25395750Y-3874500D02*
X25355750Y-3914500D01*
X25380750Y-6022500D02*
X25420750Y-6062500D01*
X25420750Y-6022500D02*
X25380750Y-6062500D01*
X25396750Y-4115500D02*
X25436750Y-4155500D01*
X25436750Y-4115500D02*
X25396750Y-4155500D01*
X26110750Y-5854500D02*
X26150750Y-5894500D01*
X26150750Y-5854500D02*
X26110750Y-5894500D01*
X26112750Y-7755500D02*
X26152750Y-7795500D01*
X26152750Y-7755500D02*
X26112750Y-7795500D01*
X26906166Y-6218296D02*
X26946166Y-6258296D01*
X26946166Y-6218296D02*
X26906166Y-6258296D01*
X26908250Y-4701500D02*
X26948250Y-4741500D01*
X26948250Y-4701500D02*
X26908250Y-4741500D01*
X26930750Y-6910500D02*
X26970750Y-6950500D01*
X26970750Y-6910500D02*
X26930750Y-6950500D01*
X26934750Y-6635000D02*
X26974750Y-6675000D01*
X26974750Y-6635000D02*
X26934750Y-6675000D01*
X26939251Y-5000500D02*
X26979251Y-5040500D01*
X26979251Y-5000500D02*
X26939251Y-5040500D01*
X26940750Y-3500500D02*
X26980750Y-3540500D01*
X26980750Y-3500500D02*
X26940750Y-3540500D01*
X26941750Y-5435500D02*
X26981750Y-5475500D01*
X26981750Y-5435500D02*
X26941750Y-5475500D01*
X27277750Y-5997500D02*
X27317750Y-6037500D01*
X27317750Y-5997500D02*
X27277750Y-6037500D01*
X27291750Y-7905500D02*
X27331750Y-7945500D01*
X27331750Y-7905500D02*
X27291750Y-7945500D01*
X28011750Y-3976500D02*
X28051750Y-4016500D01*
X28051750Y-3976500D02*
X28011750Y-4016500D01*
X28016750Y-5869500D02*
X28056750Y-5909500D01*
X28056750Y-5869500D02*
X28016750Y-5909500D01*
D12*
X12761030Y-3194200D02*
G75*
G03*
X12761030Y-3194200I-40640J0D01*
G01*
X12761030Y-3448200D02*
G75*
G03*
X12761030Y-3448200I-40640J0D01*
G01*
X12761030Y-3702200D02*
G75*
G03*
X12761030Y-3702200I-40640J0D01*
G01*
X12761030Y-3956200D02*
G75*
G03*
X12761030Y-3956200I-40640J0D01*
G01*
X12761030Y-4210200D02*
G75*
G03*
X12761030Y-4210200I-40640J0D01*
G01*
X12761030Y-4464200D02*
G75*
G03*
X12761030Y-4464200I-40640J0D01*
G01*
X12761030Y-4718200D02*
G75*
G03*
X12761030Y-4718200I-40640J0D01*
G01*
X12761030Y-4972200D02*
G75*
G03*
X12761030Y-4972200I-40640J0D01*
G01*
X12761030Y-5226200D02*
G75*
G03*
X12761030Y-5226200I-40640J0D01*
G01*
X12761030Y-5480200D02*
G75*
G03*
X12761030Y-5480200I-40640J0D01*
G01*
X12761030Y-5734200D02*
G75*
G03*
X12761030Y-5734200I-40640J0D01*
G01*
X12761030Y-5988200D02*
G75*
G03*
X12761030Y-5988200I-40640J0D01*
G01*
X13135490Y-6702800D02*
G75*
G03*
X13135490Y-6702800I-40640J0D01*
G01*
X13389490Y-6702800D02*
G75*
G03*
X13389490Y-6702800I-40640J0D01*
G01*
X13643490Y-6702800D02*
G75*
G03*
X13643490Y-6702800I-40640J0D01*
G01*
X13897490Y-6702800D02*
G75*
G03*
X13897490Y-6702800I-40640J0D01*
G01*
X14283030Y-3194200D02*
G75*
G03*
X14283030Y-3194200I-40640J0D01*
G01*
X14283030Y-3448200D02*
G75*
G03*
X14283030Y-3448200I-40640J0D01*
G01*
X14283030Y-3702200D02*
G75*
G03*
X14283030Y-3702200I-40640J0D01*
G01*
X14283030Y-3956200D02*
G75*
G03*
X14283030Y-3956200I-40640J0D01*
G01*
X14283030Y-4210200D02*
G75*
G03*
X14283030Y-4210200I-40640J0D01*
G01*
X14283030Y-4464200D02*
G75*
G03*
X14283030Y-4464200I-40640J0D01*
G01*
X14283030Y-4718200D02*
G75*
G03*
X14283030Y-4718200I-40640J0D01*
G01*
X14283030Y-4972200D02*
G75*
G03*
X14283030Y-4972200I-40640J0D01*
G01*
X14283030Y-5226200D02*
G75*
G03*
X14283030Y-5226200I-40640J0D01*
G01*
X14283030Y-5480200D02*
G75*
G03*
X14283030Y-5480200I-40640J0D01*
G01*
X14283030Y-5734200D02*
G75*
G03*
X14283030Y-5734200I-40640J0D01*
G01*
X14283030Y-5988200D02*
G75*
G03*
X14283030Y-5988200I-40640J0D01*
G01*
X15478530Y-3191200D02*
G75*
G03*
X15478530Y-3191200I-40640J0D01*
G01*
X15478530Y-3445200D02*
G75*
G03*
X15478530Y-3445200I-40640J0D01*
G01*
X15478530Y-3699200D02*
G75*
G03*
X15478530Y-3699200I-40640J0D01*
G01*
X15478530Y-3953200D02*
G75*
G03*
X15478530Y-3953200I-40640J0D01*
G01*
X15478530Y-4207200D02*
G75*
G03*
X15478530Y-4207200I-40640J0D01*
G01*
X15478530Y-4461200D02*
G75*
G03*
X15478530Y-4461200I-40640J0D01*
G01*
X15478530Y-4715200D02*
G75*
G03*
X15478530Y-4715200I-40640J0D01*
G01*
X15478530Y-4969200D02*
G75*
G03*
X15478530Y-4969200I-40640J0D01*
G01*
X15478530Y-5223200D02*
G75*
G03*
X15478530Y-5223200I-40640J0D01*
G01*
X15478530Y-5477200D02*
G75*
G03*
X15478530Y-5477200I-40640J0D01*
G01*
X15478530Y-5731200D02*
G75*
G03*
X15478530Y-5731200I-40640J0D01*
G01*
X15478530Y-5985200D02*
G75*
G03*
X15478530Y-5985200I-40640J0D01*
G01*
X15858390Y-6702000D02*
G75*
G03*
X15858390Y-6702000I-40640J0D01*
G01*
X16112390Y-6702000D02*
G75*
G03*
X16112390Y-6702000I-40640J0D01*
G01*
X16366390Y-6702000D02*
G75*
G03*
X16366390Y-6702000I-40640J0D01*
G01*
X16620390Y-6702000D02*
G75*
G03*
X16620390Y-6702000I-40640J0D01*
G01*
X17000530Y-3191200D02*
G75*
G03*
X17000530Y-3191200I-40640J0D01*
G01*
X17000530Y-3445200D02*
G75*
G03*
X17000530Y-3445200I-40640J0D01*
G01*
X17000530Y-3699200D02*
G75*
G03*
X17000530Y-3699200I-40640J0D01*
G01*
X17000530Y-3953200D02*
G75*
G03*
X17000530Y-3953200I-40640J0D01*
G01*
X17000530Y-4207200D02*
G75*
G03*
X17000530Y-4207200I-40640J0D01*
G01*
X17000530Y-4461200D02*
G75*
G03*
X17000530Y-4461200I-40640J0D01*
G01*
X17000530Y-4715200D02*
G75*
G03*
X17000530Y-4715200I-40640J0D01*
G01*
X17000530Y-4969200D02*
G75*
G03*
X17000530Y-4969200I-40640J0D01*
G01*
X17000530Y-5223200D02*
G75*
G03*
X17000530Y-5223200I-40640J0D01*
G01*
X17000530Y-5477200D02*
G75*
G03*
X17000530Y-5477200I-40640J0D01*
G01*
X17000530Y-5731200D02*
G75*
G03*
X17000530Y-5731200I-40640J0D01*
G01*
X17000530Y-5985200D02*
G75*
G03*
X17000530Y-5985200I-40640J0D01*
G01*
D13*
X13233450Y-7169200D02*
X13233450Y-7269200D01*
X13183450Y-7219200D02*
X13283450Y-7219200D01*
D10*
X13258450Y-7169200D02*
X13208450Y-7169200D01*
X13208450Y-7169200D02*
G75*
G03*
X13208450Y-7269200I0J-50000D01*
G01*
X13208450Y-7269200D02*
X13258450Y-7269200D01*
X13258450Y-7269200D02*
G75*
G03*
X13258450Y-7169200I0J50000D01*
G01*
D13*
X13383450Y-7589200D02*
X13383450Y-7689200D01*
X13333450Y-7639200D02*
X13433450Y-7639200D01*
D10*
X13408450Y-7589200D02*
X13358450Y-7589200D01*
X13358450Y-7589200D02*
G75*
G03*
X13358450Y-7689200I0J-50000D01*
G01*
X13358450Y-7689200D02*
X13408450Y-7689200D01*
X13408450Y-7689200D02*
G75*
G03*
X13408450Y-7589200I0J50000D01*
G01*
D13*
X13783450Y-7589200D02*
X13783450Y-7689200D01*
X13733450Y-7639200D02*
X13833450Y-7639200D01*
D10*
X13808450Y-7589200D02*
X13758450Y-7589200D01*
X13758450Y-7589200D02*
G75*
G03*
X13758450Y-7689200I0J-50000D01*
G01*
X13758450Y-7689200D02*
X13808450Y-7689200D01*
X13808450Y-7689200D02*
G75*
G03*
X13808450Y-7589200I0J50000D01*
G01*
D13*
X14083450Y-7589200D02*
X14083450Y-7689200D01*
X14033450Y-7639200D02*
X14133450Y-7639200D01*
D10*
X14108450Y-7589200D02*
X14058450Y-7589200D01*
X14058450Y-7589200D02*
G75*
G03*
X14058450Y-7689200I0J-50000D01*
G01*
X14058450Y-7689200D02*
X14108450Y-7689200D01*
X14108450Y-7689200D02*
G75*
G03*
X14108450Y-7589200I0J50000D01*
G01*
D13*
X15583750Y-7167000D02*
X15583750Y-7267000D01*
X15533750Y-7217000D02*
X15633750Y-7217000D01*
D10*
X15558750Y-7267000D02*
X15608750Y-7267000D01*
X15608750Y-7267000D02*
G75*
G03*
X15608750Y-7167000I0J50000D01*
G01*
X15608750Y-7167000D02*
X15558750Y-7167000D01*
X15558750Y-7167000D02*
G75*
G03*
X15558750Y-7267000I0J-50000D01*
G01*
D13*
X15883750Y-7167000D02*
X15883750Y-7267000D01*
X15833750Y-7217000D02*
X15933750Y-7217000D01*
D10*
X15858750Y-7267000D02*
X15908750Y-7267000D01*
X15908750Y-7267000D02*
G75*
G03*
X15908750Y-7167000I0J50000D01*
G01*
X15908750Y-7167000D02*
X15858750Y-7167000D01*
X15858750Y-7167000D02*
G75*
G03*
X15858750Y-7267000I0J-50000D01*
G01*
D13*
X16283750Y-7167000D02*
X16283750Y-7267000D01*
X16233750Y-7217000D02*
X16333750Y-7217000D01*
D10*
X16258750Y-7267000D02*
X16308750Y-7267000D01*
X16308750Y-7267000D02*
G75*
G03*
X16308750Y-7167000I0J50000D01*
G01*
X16308750Y-7167000D02*
X16258750Y-7167000D01*
X16258750Y-7167000D02*
G75*
G03*
X16258750Y-7267000I0J-50000D01*
G01*
D13*
X16433750Y-7587000D02*
X16433750Y-7687000D01*
X16383750Y-7637000D02*
X16483750Y-7637000D01*
D10*
X16408750Y-7687000D02*
X16458750Y-7687000D01*
X16458750Y-7687000D02*
G75*
G03*
X16458750Y-7587000I0J50000D01*
G01*
X16458750Y-7587000D02*
X16408750Y-7587000D01*
X16408750Y-7587000D02*
G75*
G03*
X16408750Y-7687000I0J-50000D01*
G01*
D14*
X14288412Y-6374062D02*
X14288412Y-6282138D01*
X14196488Y-6282138D01*
X14196488Y-6374062D01*
X14288412Y-6374062D01*
X14288412Y-7024062D02*
X14288412Y-6932138D01*
X14196488Y-6932138D01*
X14196488Y-7024062D01*
X14288412Y-7024062D01*
X15476412Y-6373162D02*
X15476412Y-6281238D01*
X15384488Y-6281238D01*
X15384488Y-6373162D01*
X15476412Y-6373162D01*
X15476412Y-7023162D02*
X15476412Y-6931238D01*
X15384488Y-6931238D01*
X15384488Y-7023162D01*
X15476412Y-7023162D01*
D10*
X1319527Y-12084984D02*
X1319527Y-11884984D01*
X1319527Y-11884984D02*
X1367146Y-11884984D01*
X1367146Y-11884984D02*
X1395717Y-11894508D01*
X1395717Y-11894508D02*
X1414765Y-11913555D01*
X1414765Y-11913555D02*
X1424289Y-11932603D01*
X1424289Y-11932603D02*
X1433812Y-11970698D01*
X1433812Y-11970698D02*
X1433812Y-11999269D01*
X1433812Y-11999269D02*
X1424289Y-12037365D01*
X1424289Y-12037365D02*
X1414765Y-12056412D01*
X1414765Y-12056412D02*
X1395717Y-12075460D01*
X1395717Y-12075460D02*
X1367146Y-12084984D01*
X1367146Y-12084984D02*
X1319527Y-12084984D01*
X1519527Y-12084984D02*
X1519527Y-11951650D01*
X1519527Y-11989746D02*
X1529051Y-11970698D01*
X1529051Y-11970698D02*
X1538574Y-11961174D01*
X1538574Y-11961174D02*
X1557622Y-11951650D01*
X1557622Y-11951650D02*
X1576670Y-11951650D01*
X1643336Y-12084984D02*
X1643336Y-11951650D01*
X1643336Y-11884984D02*
X1633812Y-11894508D01*
X1633812Y-11894508D02*
X1643336Y-11904031D01*
X1643336Y-11904031D02*
X1652860Y-11894508D01*
X1652860Y-11894508D02*
X1643336Y-11884984D01*
X1643336Y-11884984D02*
X1643336Y-11904031D01*
X1767146Y-12084984D02*
X1748098Y-12075460D01*
X1748098Y-12075460D02*
X1738574Y-12056412D01*
X1738574Y-12056412D02*
X1738574Y-11884984D01*
X1871908Y-12084984D02*
X1852860Y-12075460D01*
X1852860Y-12075460D02*
X1843336Y-12056412D01*
X1843336Y-12056412D02*
X1843336Y-11884984D01*
X2100479Y-12084984D02*
X2100479Y-11884984D01*
X2100479Y-11884984D02*
X2167146Y-12027841D01*
X2167146Y-12027841D02*
X2233813Y-11884984D01*
X2233813Y-11884984D02*
X2233813Y-12084984D01*
X2414765Y-12084984D02*
X2414765Y-11980222D01*
X2414765Y-11980222D02*
X2405241Y-11961174D01*
X2405241Y-11961174D02*
X2386194Y-11951650D01*
X2386194Y-11951650D02*
X2348098Y-11951650D01*
X2348098Y-11951650D02*
X2329051Y-11961174D01*
X2414765Y-12075460D02*
X2395717Y-12084984D01*
X2395717Y-12084984D02*
X2348098Y-12084984D01*
X2348098Y-12084984D02*
X2329051Y-12075460D01*
X2329051Y-12075460D02*
X2319527Y-12056412D01*
X2319527Y-12056412D02*
X2319527Y-12037365D01*
X2319527Y-12037365D02*
X2329051Y-12018317D01*
X2329051Y-12018317D02*
X2348098Y-12008793D01*
X2348098Y-12008793D02*
X2395717Y-12008793D01*
X2395717Y-12008793D02*
X2414765Y-11999269D01*
X2510003Y-11951650D02*
X2510003Y-12151650D01*
X2510003Y-11961174D02*
X2529051Y-11951650D01*
X2529051Y-11951650D02*
X2567146Y-11951650D01*
X2567146Y-11951650D02*
X2586194Y-11961174D01*
X2586194Y-11961174D02*
X2595717Y-11970698D01*
X2595717Y-11970698D02*
X2605241Y-11989746D01*
X2605241Y-11989746D02*
X2605241Y-12046888D01*
X2605241Y-12046888D02*
X2595717Y-12065936D01*
X2595717Y-12065936D02*
X2586194Y-12075460D01*
X2586194Y-12075460D02*
X2567146Y-12084984D01*
X2567146Y-12084984D02*
X2529051Y-12084984D01*
X2529051Y-12084984D02*
X2510003Y-12075460D01*
X2690955Y-12065936D02*
X2700479Y-12075460D01*
X2700479Y-12075460D02*
X2690955Y-12084984D01*
X2690955Y-12084984D02*
X2681432Y-12075460D01*
X2681432Y-12075460D02*
X2690955Y-12065936D01*
X2690955Y-12065936D02*
X2690955Y-12084984D01*
X2690955Y-11961174D02*
X2700479Y-11970698D01*
X2700479Y-11970698D02*
X2690955Y-11980222D01*
X2690955Y-11980222D02*
X2681432Y-11970698D01*
X2681432Y-11970698D02*
X2690955Y-11961174D01*
X2690955Y-11961174D02*
X2690955Y-11980222D01*
D11*
X1018750Y-12393500D02*
X1058750Y-12433500D01*
X1058750Y-12393500D02*
X1018750Y-12433500D01*
D10*
X1357622Y-12304984D02*
X1376670Y-12304984D01*
X1376670Y-12304984D02*
X1395717Y-12314508D01*
X1395717Y-12314508D02*
X1405241Y-12324031D01*
X1405241Y-12324031D02*
X1414765Y-12343079D01*
X1414765Y-12343079D02*
X1424289Y-12381174D01*
X1424289Y-12381174D02*
X1424289Y-12428793D01*
X1424289Y-12428793D02*
X1414765Y-12466888D01*
X1414765Y-12466888D02*
X1405241Y-12485936D01*
X1405241Y-12485936D02*
X1395717Y-12495460D01*
X1395717Y-12495460D02*
X1376670Y-12504984D01*
X1376670Y-12504984D02*
X1357622Y-12504984D01*
X1357622Y-12504984D02*
X1338574Y-12495460D01*
X1338574Y-12495460D02*
X1329051Y-12485936D01*
X1329051Y-12485936D02*
X1319527Y-12466888D01*
X1319527Y-12466888D02*
X1310003Y-12428793D01*
X1310003Y-12428793D02*
X1310003Y-12381174D01*
X1310003Y-12381174D02*
X1319527Y-12343079D01*
X1319527Y-12343079D02*
X1329051Y-12324031D01*
X1329051Y-12324031D02*
X1338574Y-12314508D01*
X1338574Y-12314508D02*
X1357622Y-12304984D01*
X1510003Y-12485936D02*
X1519527Y-12495460D01*
X1519527Y-12495460D02*
X1510003Y-12504984D01*
X1510003Y-12504984D02*
X1500479Y-12495460D01*
X1500479Y-12495460D02*
X1510003Y-12485936D01*
X1510003Y-12485936D02*
X1510003Y-12504984D01*
X1690955Y-12371650D02*
X1690955Y-12504984D01*
X1643336Y-12295460D02*
X1595717Y-12438317D01*
X1595717Y-12438317D02*
X1719527Y-12438317D01*
X1833812Y-12304984D02*
X1852860Y-12304984D01*
X1852860Y-12304984D02*
X1871908Y-12314508D01*
X1871908Y-12314508D02*
X1881432Y-12324031D01*
X1881432Y-12324031D02*
X1890955Y-12343079D01*
X1890955Y-12343079D02*
X1900479Y-12381174D01*
X1900479Y-12381174D02*
X1900479Y-12428793D01*
X1900479Y-12428793D02*
X1890955Y-12466888D01*
X1890955Y-12466888D02*
X1881432Y-12485936D01*
X1881432Y-12485936D02*
X1871908Y-12495460D01*
X1871908Y-12495460D02*
X1852860Y-12504984D01*
X1852860Y-12504984D02*
X1833812Y-12504984D01*
X1833812Y-12504984D02*
X1814765Y-12495460D01*
X1814765Y-12495460D02*
X1805241Y-12485936D01*
X1805241Y-12485936D02*
X1795717Y-12466888D01*
X1795717Y-12466888D02*
X1786193Y-12428793D01*
X1786193Y-12428793D02*
X1786193Y-12381174D01*
X1786193Y-12381174D02*
X1795717Y-12343079D01*
X1795717Y-12343079D02*
X1805241Y-12324031D01*
X1805241Y-12324031D02*
X1814765Y-12314508D01*
X1814765Y-12314508D02*
X1833812Y-12304984D01*
X2024289Y-12304984D02*
X2043336Y-12304984D01*
X2043336Y-12304984D02*
X2062384Y-12314508D01*
X2062384Y-12314508D02*
X2071908Y-12324031D01*
X2071908Y-12324031D02*
X2081432Y-12343079D01*
X2081432Y-12343079D02*
X2090955Y-12381174D01*
X2090955Y-12381174D02*
X2090955Y-12428793D01*
X2090955Y-12428793D02*
X2081432Y-12466888D01*
X2081432Y-12466888D02*
X2071908Y-12485936D01*
X2071908Y-12485936D02*
X2062384Y-12495460D01*
X2062384Y-12495460D02*
X2043336Y-12504984D01*
X2043336Y-12504984D02*
X2024289Y-12504984D01*
X2024289Y-12504984D02*
X2005241Y-12495460D01*
X2005241Y-12495460D02*
X1995717Y-12485936D01*
X1995717Y-12485936D02*
X1986193Y-12466888D01*
X1986193Y-12466888D02*
X1976670Y-12428793D01*
X1976670Y-12428793D02*
X1976670Y-12381174D01*
X1976670Y-12381174D02*
X1986193Y-12343079D01*
X1986193Y-12343079D02*
X1995717Y-12324031D01*
X1995717Y-12324031D02*
X2005241Y-12314508D01*
X2005241Y-12314508D02*
X2024289Y-12304984D01*
X2176670Y-12504984D02*
X2176670Y-12371650D01*
X2176670Y-12390698D02*
X2186194Y-12381174D01*
X2186194Y-12381174D02*
X2205241Y-12371650D01*
X2205241Y-12371650D02*
X2233813Y-12371650D01*
X2233813Y-12371650D02*
X2252860Y-12381174D01*
X2252860Y-12381174D02*
X2262384Y-12400222D01*
X2262384Y-12400222D02*
X2262384Y-12504984D01*
X2262384Y-12400222D02*
X2271908Y-12381174D01*
X2271908Y-12381174D02*
X2290955Y-12371650D01*
X2290955Y-12371650D02*
X2319527Y-12371650D01*
X2319527Y-12371650D02*
X2338575Y-12381174D01*
X2338575Y-12381174D02*
X2348098Y-12400222D01*
X2348098Y-12400222D02*
X2348098Y-12504984D01*
X2443336Y-12504984D02*
X2443336Y-12371650D01*
X2443336Y-12390698D02*
X2452860Y-12381174D01*
X2452860Y-12381174D02*
X2471908Y-12371650D01*
X2471908Y-12371650D02*
X2500479Y-12371650D01*
X2500479Y-12371650D02*
X2519527Y-12381174D01*
X2519527Y-12381174D02*
X2529051Y-12400222D01*
X2529051Y-12400222D02*
X2529051Y-12504984D01*
X2529051Y-12400222D02*
X2538575Y-12381174D01*
X2538575Y-12381174D02*
X2557622Y-12371650D01*
X2557622Y-12371650D02*
X2586194Y-12371650D01*
X2586194Y-12371650D02*
X2605241Y-12381174D01*
X2605241Y-12381174D02*
X2614765Y-12400222D01*
X2614765Y-12400222D02*
X2614765Y-12504984D01*
X3005241Y-12295460D02*
X2833813Y-12552603D01*
X3262384Y-12304984D02*
X3281432Y-12304984D01*
X3281432Y-12304984D02*
X3300479Y-12314508D01*
X3300479Y-12314508D02*
X3310003Y-12324031D01*
X3310003Y-12324031D02*
X3319527Y-12343079D01*
X3319527Y-12343079D02*
X3329051Y-12381174D01*
X3329051Y-12381174D02*
X3329051Y-12428793D01*
X3329051Y-12428793D02*
X3319527Y-12466888D01*
X3319527Y-12466888D02*
X3310003Y-12485936D01*
X3310003Y-12485936D02*
X3300479Y-12495460D01*
X3300479Y-12495460D02*
X3281432Y-12504984D01*
X3281432Y-12504984D02*
X3262384Y-12504984D01*
X3262384Y-12504984D02*
X3243336Y-12495460D01*
X3243336Y-12495460D02*
X3233813Y-12485936D01*
X3233813Y-12485936D02*
X3224289Y-12466888D01*
X3224289Y-12466888D02*
X3214765Y-12428793D01*
X3214765Y-12428793D02*
X3214765Y-12381174D01*
X3214765Y-12381174D02*
X3224289Y-12343079D01*
X3224289Y-12343079D02*
X3233813Y-12324031D01*
X3233813Y-12324031D02*
X3243336Y-12314508D01*
X3243336Y-12314508D02*
X3262384Y-12304984D01*
X3414765Y-12485936D02*
X3424289Y-12495460D01*
X3424289Y-12495460D02*
X3414765Y-12504984D01*
X3414765Y-12504984D02*
X3405241Y-12495460D01*
X3405241Y-12495460D02*
X3414765Y-12485936D01*
X3414765Y-12485936D02*
X3414765Y-12504984D01*
X3548098Y-12304984D02*
X3567146Y-12304984D01*
X3567146Y-12304984D02*
X3586194Y-12314508D01*
X3586194Y-12314508D02*
X3595717Y-12324031D01*
X3595717Y-12324031D02*
X3605241Y-12343079D01*
X3605241Y-12343079D02*
X3614765Y-12381174D01*
X3614765Y-12381174D02*
X3614765Y-12428793D01*
X3614765Y-12428793D02*
X3605241Y-12466888D01*
X3605241Y-12466888D02*
X3595717Y-12485936D01*
X3595717Y-12485936D02*
X3586194Y-12495460D01*
X3586194Y-12495460D02*
X3567146Y-12504984D01*
X3567146Y-12504984D02*
X3548098Y-12504984D01*
X3548098Y-12504984D02*
X3529051Y-12495460D01*
X3529051Y-12495460D02*
X3519527Y-12485936D01*
X3519527Y-12485936D02*
X3510003Y-12466888D01*
X3510003Y-12466888D02*
X3500479Y-12428793D01*
X3500479Y-12428793D02*
X3500479Y-12381174D01*
X3500479Y-12381174D02*
X3510003Y-12343079D01*
X3510003Y-12343079D02*
X3519527Y-12324031D01*
X3519527Y-12324031D02*
X3529051Y-12314508D01*
X3529051Y-12314508D02*
X3548098Y-12304984D01*
X3805241Y-12504984D02*
X3690956Y-12504984D01*
X3748098Y-12504984D02*
X3748098Y-12304984D01*
X3748098Y-12304984D02*
X3729051Y-12333555D01*
X3729051Y-12333555D02*
X3710003Y-12352603D01*
X3710003Y-12352603D02*
X3690956Y-12362127D01*
X3986194Y-12304984D02*
X3890956Y-12304984D01*
X3890956Y-12304984D02*
X3881432Y-12400222D01*
X3881432Y-12400222D02*
X3890956Y-12390698D01*
X3890956Y-12390698D02*
X3910003Y-12381174D01*
X3910003Y-12381174D02*
X3957622Y-12381174D01*
X3957622Y-12381174D02*
X3976670Y-12390698D01*
X3976670Y-12390698D02*
X3986194Y-12400222D01*
X3986194Y-12400222D02*
X3995717Y-12419269D01*
X3995717Y-12419269D02*
X3995717Y-12466888D01*
X3995717Y-12466888D02*
X3986194Y-12485936D01*
X3986194Y-12485936D02*
X3976670Y-12495460D01*
X3976670Y-12495460D02*
X3957622Y-12504984D01*
X3957622Y-12504984D02*
X3910003Y-12504984D01*
X3910003Y-12504984D02*
X3890956Y-12495460D01*
X3890956Y-12495460D02*
X3881432Y-12485936D01*
X4062384Y-12304984D02*
X4195718Y-12304984D01*
X4195718Y-12304984D02*
X4110003Y-12504984D01*
X4262384Y-12304984D02*
X4262384Y-12343079D01*
X4338575Y-12304984D02*
X4338575Y-12343079D01*
X4633813Y-12581174D02*
X4624289Y-12571650D01*
X4624289Y-12571650D02*
X4605241Y-12543079D01*
X4605241Y-12543079D02*
X4595718Y-12524031D01*
X4595718Y-12524031D02*
X4586194Y-12495460D01*
X4586194Y-12495460D02*
X4576670Y-12447841D01*
X4576670Y-12447841D02*
X4576670Y-12409746D01*
X4576670Y-12409746D02*
X4586194Y-12362127D01*
X4586194Y-12362127D02*
X4595718Y-12333555D01*
X4595718Y-12333555D02*
X4605241Y-12314508D01*
X4605241Y-12314508D02*
X4624289Y-12285936D01*
X4624289Y-12285936D02*
X4633813Y-12276412D01*
X4700480Y-12324031D02*
X4710003Y-12314508D01*
X4710003Y-12314508D02*
X4729051Y-12304984D01*
X4729051Y-12304984D02*
X4776670Y-12304984D01*
X4776670Y-12304984D02*
X4795718Y-12314508D01*
X4795718Y-12314508D02*
X4805241Y-12324031D01*
X4805241Y-12324031D02*
X4814765Y-12343079D01*
X4814765Y-12343079D02*
X4814765Y-12362127D01*
X4814765Y-12362127D02*
X4805241Y-12390698D01*
X4805241Y-12390698D02*
X4690956Y-12504984D01*
X4690956Y-12504984D02*
X4814765Y-12504984D01*
X5005241Y-12504984D02*
X4890956Y-12504984D01*
X4948099Y-12504984D02*
X4948099Y-12304984D01*
X4948099Y-12304984D02*
X4929051Y-12333555D01*
X4929051Y-12333555D02*
X4910003Y-12352603D01*
X4910003Y-12352603D02*
X4890956Y-12362127D01*
X5081432Y-12324031D02*
X5090956Y-12314508D01*
X5090956Y-12314508D02*
X5110003Y-12304984D01*
X5110003Y-12304984D02*
X5157622Y-12304984D01*
X5157622Y-12304984D02*
X5176670Y-12314508D01*
X5176670Y-12314508D02*
X5186194Y-12324031D01*
X5186194Y-12324031D02*
X5195718Y-12343079D01*
X5195718Y-12343079D02*
X5195718Y-12362127D01*
X5195718Y-12362127D02*
X5186194Y-12390698D01*
X5186194Y-12390698D02*
X5071908Y-12504984D01*
X5071908Y-12504984D02*
X5195718Y-12504984D01*
X5433813Y-12504984D02*
X5433813Y-12304984D01*
X5519527Y-12504984D02*
X5519527Y-12400222D01*
X5519527Y-12400222D02*
X5510003Y-12381174D01*
X5510003Y-12381174D02*
X5490956Y-12371650D01*
X5490956Y-12371650D02*
X5462384Y-12371650D01*
X5462384Y-12371650D02*
X5443337Y-12381174D01*
X5443337Y-12381174D02*
X5433813Y-12390698D01*
X5643337Y-12504984D02*
X5624289Y-12495460D01*
X5624289Y-12495460D02*
X5614765Y-12485936D01*
X5614765Y-12485936D02*
X5605241Y-12466888D01*
X5605241Y-12466888D02*
X5605241Y-12409746D01*
X5605241Y-12409746D02*
X5614765Y-12390698D01*
X5614765Y-12390698D02*
X5624289Y-12381174D01*
X5624289Y-12381174D02*
X5643337Y-12371650D01*
X5643337Y-12371650D02*
X5671908Y-12371650D01*
X5671908Y-12371650D02*
X5690956Y-12381174D01*
X5690956Y-12381174D02*
X5700480Y-12390698D01*
X5700480Y-12390698D02*
X5710003Y-12409746D01*
X5710003Y-12409746D02*
X5710003Y-12466888D01*
X5710003Y-12466888D02*
X5700480Y-12485936D01*
X5700480Y-12485936D02*
X5690956Y-12495460D01*
X5690956Y-12495460D02*
X5671908Y-12504984D01*
X5671908Y-12504984D02*
X5643337Y-12504984D01*
X5824289Y-12504984D02*
X5805241Y-12495460D01*
X5805241Y-12495460D02*
X5795718Y-12476412D01*
X5795718Y-12476412D02*
X5795718Y-12304984D01*
X5976670Y-12495460D02*
X5957622Y-12504984D01*
X5957622Y-12504984D02*
X5919527Y-12504984D01*
X5919527Y-12504984D02*
X5900480Y-12495460D01*
X5900480Y-12495460D02*
X5890956Y-12476412D01*
X5890956Y-12476412D02*
X5890956Y-12400222D01*
X5890956Y-12400222D02*
X5900480Y-12381174D01*
X5900480Y-12381174D02*
X5919527Y-12371650D01*
X5919527Y-12371650D02*
X5957622Y-12371650D01*
X5957622Y-12371650D02*
X5976670Y-12381174D01*
X5976670Y-12381174D02*
X5986194Y-12400222D01*
X5986194Y-12400222D02*
X5986194Y-12419269D01*
X5986194Y-12419269D02*
X5890956Y-12438317D01*
X6062384Y-12495460D02*
X6081432Y-12504984D01*
X6081432Y-12504984D02*
X6119527Y-12504984D01*
X6119527Y-12504984D02*
X6138575Y-12495460D01*
X6138575Y-12495460D02*
X6148099Y-12476412D01*
X6148099Y-12476412D02*
X6148099Y-12466888D01*
X6148099Y-12466888D02*
X6138575Y-12447841D01*
X6138575Y-12447841D02*
X6119527Y-12438317D01*
X6119527Y-12438317D02*
X6090956Y-12438317D01*
X6090956Y-12438317D02*
X6071908Y-12428793D01*
X6071908Y-12428793D02*
X6062384Y-12409746D01*
X6062384Y-12409746D02*
X6062384Y-12400222D01*
X6062384Y-12400222D02*
X6071908Y-12381174D01*
X6071908Y-12381174D02*
X6090956Y-12371650D01*
X6090956Y-12371650D02*
X6119527Y-12371650D01*
X6119527Y-12371650D02*
X6138575Y-12381174D01*
X6214765Y-12581174D02*
X6224289Y-12571650D01*
X6224289Y-12571650D02*
X6243337Y-12543079D01*
X6243337Y-12543079D02*
X6252861Y-12524031D01*
X6252861Y-12524031D02*
X6262384Y-12495460D01*
X6262384Y-12495460D02*
X6271908Y-12447841D01*
X6271908Y-12447841D02*
X6271908Y-12409746D01*
X6271908Y-12409746D02*
X6262384Y-12362127D01*
X6262384Y-12362127D02*
X6252861Y-12333555D01*
X6252861Y-12333555D02*
X6243337Y-12314508D01*
X6243337Y-12314508D02*
X6224289Y-12285936D01*
X6224289Y-12285936D02*
X6214765Y-12276412D01*
D12*
X1058750Y-12677500D02*
G75*
G03*
X1058750Y-12677500I-40640J0D01*
G01*
D10*
X1357622Y-12568984D02*
X1376670Y-12568984D01*
X1376670Y-12568984D02*
X1395717Y-12578508D01*
X1395717Y-12578508D02*
X1405241Y-12588031D01*
X1405241Y-12588031D02*
X1414765Y-12607079D01*
X1414765Y-12607079D02*
X1424289Y-12645174D01*
X1424289Y-12645174D02*
X1424289Y-12692793D01*
X1424289Y-12692793D02*
X1414765Y-12730888D01*
X1414765Y-12730888D02*
X1405241Y-12749936D01*
X1405241Y-12749936D02*
X1395717Y-12759460D01*
X1395717Y-12759460D02*
X1376670Y-12768984D01*
X1376670Y-12768984D02*
X1357622Y-12768984D01*
X1357622Y-12768984D02*
X1338574Y-12759460D01*
X1338574Y-12759460D02*
X1329051Y-12749936D01*
X1329051Y-12749936D02*
X1319527Y-12730888D01*
X1319527Y-12730888D02*
X1310003Y-12692793D01*
X1310003Y-12692793D02*
X1310003Y-12645174D01*
X1310003Y-12645174D02*
X1319527Y-12607079D01*
X1319527Y-12607079D02*
X1329051Y-12588031D01*
X1329051Y-12588031D02*
X1338574Y-12578508D01*
X1338574Y-12578508D02*
X1357622Y-12568984D01*
X1510003Y-12749936D02*
X1519527Y-12759460D01*
X1519527Y-12759460D02*
X1510003Y-12768984D01*
X1510003Y-12768984D02*
X1500479Y-12759460D01*
X1500479Y-12759460D02*
X1510003Y-12749936D01*
X1510003Y-12749936D02*
X1510003Y-12768984D01*
X1633812Y-12654698D02*
X1614765Y-12645174D01*
X1614765Y-12645174D02*
X1605241Y-12635650D01*
X1605241Y-12635650D02*
X1595717Y-12616603D01*
X1595717Y-12616603D02*
X1595717Y-12607079D01*
X1595717Y-12607079D02*
X1605241Y-12588031D01*
X1605241Y-12588031D02*
X1614765Y-12578508D01*
X1614765Y-12578508D02*
X1633812Y-12568984D01*
X1633812Y-12568984D02*
X1671908Y-12568984D01*
X1671908Y-12568984D02*
X1690955Y-12578508D01*
X1690955Y-12578508D02*
X1700479Y-12588031D01*
X1700479Y-12588031D02*
X1710003Y-12607079D01*
X1710003Y-12607079D02*
X1710003Y-12616603D01*
X1710003Y-12616603D02*
X1700479Y-12635650D01*
X1700479Y-12635650D02*
X1690955Y-12645174D01*
X1690955Y-12645174D02*
X1671908Y-12654698D01*
X1671908Y-12654698D02*
X1633812Y-12654698D01*
X1633812Y-12654698D02*
X1614765Y-12664222D01*
X1614765Y-12664222D02*
X1605241Y-12673746D01*
X1605241Y-12673746D02*
X1595717Y-12692793D01*
X1595717Y-12692793D02*
X1595717Y-12730888D01*
X1595717Y-12730888D02*
X1605241Y-12749936D01*
X1605241Y-12749936D02*
X1614765Y-12759460D01*
X1614765Y-12759460D02*
X1633812Y-12768984D01*
X1633812Y-12768984D02*
X1671908Y-12768984D01*
X1671908Y-12768984D02*
X1690955Y-12759460D01*
X1690955Y-12759460D02*
X1700479Y-12749936D01*
X1700479Y-12749936D02*
X1710003Y-12730888D01*
X1710003Y-12730888D02*
X1710003Y-12692793D01*
X1710003Y-12692793D02*
X1700479Y-12673746D01*
X1700479Y-12673746D02*
X1690955Y-12664222D01*
X1690955Y-12664222D02*
X1671908Y-12654698D01*
X1900479Y-12768984D02*
X1786193Y-12768984D01*
X1843336Y-12768984D02*
X1843336Y-12568984D01*
X1843336Y-12568984D02*
X1824289Y-12597555D01*
X1824289Y-12597555D02*
X1805241Y-12616603D01*
X1805241Y-12616603D02*
X1786193Y-12626127D01*
X1967146Y-12568984D02*
X2090955Y-12568984D01*
X2090955Y-12568984D02*
X2024289Y-12645174D01*
X2024289Y-12645174D02*
X2052860Y-12645174D01*
X2052860Y-12645174D02*
X2071908Y-12654698D01*
X2071908Y-12654698D02*
X2081432Y-12664222D01*
X2081432Y-12664222D02*
X2090955Y-12683269D01*
X2090955Y-12683269D02*
X2090955Y-12730888D01*
X2090955Y-12730888D02*
X2081432Y-12749936D01*
X2081432Y-12749936D02*
X2071908Y-12759460D01*
X2071908Y-12759460D02*
X2052860Y-12768984D01*
X2052860Y-12768984D02*
X1995717Y-12768984D01*
X1995717Y-12768984D02*
X1976670Y-12759460D01*
X1976670Y-12759460D02*
X1967146Y-12749936D01*
X2176670Y-12768984D02*
X2176670Y-12635650D01*
X2176670Y-12654698D02*
X2186194Y-12645174D01*
X2186194Y-12645174D02*
X2205241Y-12635650D01*
X2205241Y-12635650D02*
X2233813Y-12635650D01*
X2233813Y-12635650D02*
X2252860Y-12645174D01*
X2252860Y-12645174D02*
X2262384Y-12664222D01*
X2262384Y-12664222D02*
X2262384Y-12768984D01*
X2262384Y-12664222D02*
X2271908Y-12645174D01*
X2271908Y-12645174D02*
X2290955Y-12635650D01*
X2290955Y-12635650D02*
X2319527Y-12635650D01*
X2319527Y-12635650D02*
X2338575Y-12645174D01*
X2338575Y-12645174D02*
X2348098Y-12664222D01*
X2348098Y-12664222D02*
X2348098Y-12768984D01*
X2443336Y-12768984D02*
X2443336Y-12635650D01*
X2443336Y-12654698D02*
X2452860Y-12645174D01*
X2452860Y-12645174D02*
X2471908Y-12635650D01*
X2471908Y-12635650D02*
X2500479Y-12635650D01*
X2500479Y-12635650D02*
X2519527Y-12645174D01*
X2519527Y-12645174D02*
X2529051Y-12664222D01*
X2529051Y-12664222D02*
X2529051Y-12768984D01*
X2529051Y-12664222D02*
X2538575Y-12645174D01*
X2538575Y-12645174D02*
X2557622Y-12635650D01*
X2557622Y-12635650D02*
X2586194Y-12635650D01*
X2586194Y-12635650D02*
X2605241Y-12645174D01*
X2605241Y-12645174D02*
X2614765Y-12664222D01*
X2614765Y-12664222D02*
X2614765Y-12768984D01*
X3005241Y-12559460D02*
X2833813Y-12816603D01*
X3262384Y-12568984D02*
X3281432Y-12568984D01*
X3281432Y-12568984D02*
X3300479Y-12578508D01*
X3300479Y-12578508D02*
X3310003Y-12588031D01*
X3310003Y-12588031D02*
X3319527Y-12607079D01*
X3319527Y-12607079D02*
X3329051Y-12645174D01*
X3329051Y-12645174D02*
X3329051Y-12692793D01*
X3329051Y-12692793D02*
X3319527Y-12730888D01*
X3319527Y-12730888D02*
X3310003Y-12749936D01*
X3310003Y-12749936D02*
X3300479Y-12759460D01*
X3300479Y-12759460D02*
X3281432Y-12768984D01*
X3281432Y-12768984D02*
X3262384Y-12768984D01*
X3262384Y-12768984D02*
X3243336Y-12759460D01*
X3243336Y-12759460D02*
X3233813Y-12749936D01*
X3233813Y-12749936D02*
X3224289Y-12730888D01*
X3224289Y-12730888D02*
X3214765Y-12692793D01*
X3214765Y-12692793D02*
X3214765Y-12645174D01*
X3214765Y-12645174D02*
X3224289Y-12607079D01*
X3224289Y-12607079D02*
X3233813Y-12588031D01*
X3233813Y-12588031D02*
X3243336Y-12578508D01*
X3243336Y-12578508D02*
X3262384Y-12568984D01*
X3414765Y-12749936D02*
X3424289Y-12759460D01*
X3424289Y-12759460D02*
X3414765Y-12768984D01*
X3414765Y-12768984D02*
X3405241Y-12759460D01*
X3405241Y-12759460D02*
X3414765Y-12749936D01*
X3414765Y-12749936D02*
X3414765Y-12768984D01*
X3548098Y-12568984D02*
X3567146Y-12568984D01*
X3567146Y-12568984D02*
X3586194Y-12578508D01*
X3586194Y-12578508D02*
X3595717Y-12588031D01*
X3595717Y-12588031D02*
X3605241Y-12607079D01*
X3605241Y-12607079D02*
X3614765Y-12645174D01*
X3614765Y-12645174D02*
X3614765Y-12692793D01*
X3614765Y-12692793D02*
X3605241Y-12730888D01*
X3605241Y-12730888D02*
X3595717Y-12749936D01*
X3595717Y-12749936D02*
X3586194Y-12759460D01*
X3586194Y-12759460D02*
X3567146Y-12768984D01*
X3567146Y-12768984D02*
X3548098Y-12768984D01*
X3548098Y-12768984D02*
X3529051Y-12759460D01*
X3529051Y-12759460D02*
X3519527Y-12749936D01*
X3519527Y-12749936D02*
X3510003Y-12730888D01*
X3510003Y-12730888D02*
X3500479Y-12692793D01*
X3500479Y-12692793D02*
X3500479Y-12645174D01*
X3500479Y-12645174D02*
X3510003Y-12607079D01*
X3510003Y-12607079D02*
X3519527Y-12588031D01*
X3519527Y-12588031D02*
X3529051Y-12578508D01*
X3529051Y-12578508D02*
X3548098Y-12568984D01*
X3681432Y-12568984D02*
X3805241Y-12568984D01*
X3805241Y-12568984D02*
X3738575Y-12645174D01*
X3738575Y-12645174D02*
X3767146Y-12645174D01*
X3767146Y-12645174D02*
X3786194Y-12654698D01*
X3786194Y-12654698D02*
X3795717Y-12664222D01*
X3795717Y-12664222D02*
X3805241Y-12683269D01*
X3805241Y-12683269D02*
X3805241Y-12730888D01*
X3805241Y-12730888D02*
X3795717Y-12749936D01*
X3795717Y-12749936D02*
X3786194Y-12759460D01*
X3786194Y-12759460D02*
X3767146Y-12768984D01*
X3767146Y-12768984D02*
X3710003Y-12768984D01*
X3710003Y-12768984D02*
X3690956Y-12759460D01*
X3690956Y-12759460D02*
X3681432Y-12749936D01*
X3881432Y-12588031D02*
X3890956Y-12578508D01*
X3890956Y-12578508D02*
X3910003Y-12568984D01*
X3910003Y-12568984D02*
X3957622Y-12568984D01*
X3957622Y-12568984D02*
X3976670Y-12578508D01*
X3976670Y-12578508D02*
X3986194Y-12588031D01*
X3986194Y-12588031D02*
X3995717Y-12607079D01*
X3995717Y-12607079D02*
X3995717Y-12626127D01*
X3995717Y-12626127D02*
X3986194Y-12654698D01*
X3986194Y-12654698D02*
X3871908Y-12768984D01*
X3871908Y-12768984D02*
X3995717Y-12768984D01*
X4119527Y-12568984D02*
X4138575Y-12568984D01*
X4138575Y-12568984D02*
X4157622Y-12578508D01*
X4157622Y-12578508D02*
X4167146Y-12588031D01*
X4167146Y-12588031D02*
X4176670Y-12607079D01*
X4176670Y-12607079D02*
X4186194Y-12645174D01*
X4186194Y-12645174D02*
X4186194Y-12692793D01*
X4186194Y-12692793D02*
X4176670Y-12730888D01*
X4176670Y-12730888D02*
X4167146Y-12749936D01*
X4167146Y-12749936D02*
X4157622Y-12759460D01*
X4157622Y-12759460D02*
X4138575Y-12768984D01*
X4138575Y-12768984D02*
X4119527Y-12768984D01*
X4119527Y-12768984D02*
X4100479Y-12759460D01*
X4100479Y-12759460D02*
X4090956Y-12749936D01*
X4090956Y-12749936D02*
X4081432Y-12730888D01*
X4081432Y-12730888D02*
X4071908Y-12692793D01*
X4071908Y-12692793D02*
X4071908Y-12645174D01*
X4071908Y-12645174D02*
X4081432Y-12607079D01*
X4081432Y-12607079D02*
X4090956Y-12588031D01*
X4090956Y-12588031D02*
X4100479Y-12578508D01*
X4100479Y-12578508D02*
X4119527Y-12568984D01*
X4262384Y-12568984D02*
X4262384Y-12607079D01*
X4338575Y-12568984D02*
X4338575Y-12607079D01*
X4633813Y-12845174D02*
X4624289Y-12835650D01*
X4624289Y-12835650D02*
X4605241Y-12807079D01*
X4605241Y-12807079D02*
X4595718Y-12788031D01*
X4595718Y-12788031D02*
X4586194Y-12759460D01*
X4586194Y-12759460D02*
X4576670Y-12711841D01*
X4576670Y-12711841D02*
X4576670Y-12673746D01*
X4576670Y-12673746D02*
X4586194Y-12626127D01*
X4586194Y-12626127D02*
X4595718Y-12597555D01*
X4595718Y-12597555D02*
X4605241Y-12578508D01*
X4605241Y-12578508D02*
X4624289Y-12549936D01*
X4624289Y-12549936D02*
X4633813Y-12540412D01*
X4805241Y-12568984D02*
X4710003Y-12568984D01*
X4710003Y-12568984D02*
X4700480Y-12664222D01*
X4700480Y-12664222D02*
X4710003Y-12654698D01*
X4710003Y-12654698D02*
X4729051Y-12645174D01*
X4729051Y-12645174D02*
X4776670Y-12645174D01*
X4776670Y-12645174D02*
X4795718Y-12654698D01*
X4795718Y-12654698D02*
X4805241Y-12664222D01*
X4805241Y-12664222D02*
X4814765Y-12683269D01*
X4814765Y-12683269D02*
X4814765Y-12730888D01*
X4814765Y-12730888D02*
X4805241Y-12749936D01*
X4805241Y-12749936D02*
X4795718Y-12759460D01*
X4795718Y-12759460D02*
X4776670Y-12768984D01*
X4776670Y-12768984D02*
X4729051Y-12768984D01*
X4729051Y-12768984D02*
X4710003Y-12759460D01*
X4710003Y-12759460D02*
X4700480Y-12749936D01*
X4986194Y-12568984D02*
X4948099Y-12568984D01*
X4948099Y-12568984D02*
X4929051Y-12578508D01*
X4929051Y-12578508D02*
X4919527Y-12588031D01*
X4919527Y-12588031D02*
X4900480Y-12616603D01*
X4900480Y-12616603D02*
X4890956Y-12654698D01*
X4890956Y-12654698D02*
X4890956Y-12730888D01*
X4890956Y-12730888D02*
X4900480Y-12749936D01*
X4900480Y-12749936D02*
X4910003Y-12759460D01*
X4910003Y-12759460D02*
X4929051Y-12768984D01*
X4929051Y-12768984D02*
X4967146Y-12768984D01*
X4967146Y-12768984D02*
X4986194Y-12759460D01*
X4986194Y-12759460D02*
X4995718Y-12749936D01*
X4995718Y-12749936D02*
X5005241Y-12730888D01*
X5005241Y-12730888D02*
X5005241Y-12683269D01*
X5005241Y-12683269D02*
X4995718Y-12664222D01*
X4995718Y-12664222D02*
X4986194Y-12654698D01*
X4986194Y-12654698D02*
X4967146Y-12645174D01*
X4967146Y-12645174D02*
X4929051Y-12645174D01*
X4929051Y-12645174D02*
X4910003Y-12654698D01*
X4910003Y-12654698D02*
X4900480Y-12664222D01*
X4900480Y-12664222D02*
X4890956Y-12683269D01*
X5243337Y-12768984D02*
X5243337Y-12568984D01*
X5329051Y-12768984D02*
X5329051Y-12664222D01*
X5329051Y-12664222D02*
X5319527Y-12645174D01*
X5319527Y-12645174D02*
X5300480Y-12635650D01*
X5300480Y-12635650D02*
X5271908Y-12635650D01*
X5271908Y-12635650D02*
X5252861Y-12645174D01*
X5252861Y-12645174D02*
X5243337Y-12654698D01*
X5452861Y-12768984D02*
X5433813Y-12759460D01*
X5433813Y-12759460D02*
X5424289Y-12749936D01*
X5424289Y-12749936D02*
X5414765Y-12730888D01*
X5414765Y-12730888D02*
X5414765Y-12673746D01*
X5414765Y-12673746D02*
X5424289Y-12654698D01*
X5424289Y-12654698D02*
X5433813Y-12645174D01*
X5433813Y-12645174D02*
X5452861Y-12635650D01*
X5452861Y-12635650D02*
X5481432Y-12635650D01*
X5481432Y-12635650D02*
X5500480Y-12645174D01*
X5500480Y-12645174D02*
X5510003Y-12654698D01*
X5510003Y-12654698D02*
X5519527Y-12673746D01*
X5519527Y-12673746D02*
X5519527Y-12730888D01*
X5519527Y-12730888D02*
X5510003Y-12749936D01*
X5510003Y-12749936D02*
X5500480Y-12759460D01*
X5500480Y-12759460D02*
X5481432Y-12768984D01*
X5481432Y-12768984D02*
X5452861Y-12768984D01*
X5633813Y-12768984D02*
X5614765Y-12759460D01*
X5614765Y-12759460D02*
X5605241Y-12740412D01*
X5605241Y-12740412D02*
X5605241Y-12568984D01*
X5786194Y-12759460D02*
X5767146Y-12768984D01*
X5767146Y-12768984D02*
X5729051Y-12768984D01*
X5729051Y-12768984D02*
X5710003Y-12759460D01*
X5710003Y-12759460D02*
X5700480Y-12740412D01*
X5700480Y-12740412D02*
X5700480Y-12664222D01*
X5700480Y-12664222D02*
X5710003Y-12645174D01*
X5710003Y-12645174D02*
X5729051Y-12635650D01*
X5729051Y-12635650D02*
X5767146Y-12635650D01*
X5767146Y-12635650D02*
X5786194Y-12645174D01*
X5786194Y-12645174D02*
X5795718Y-12664222D01*
X5795718Y-12664222D02*
X5795718Y-12683269D01*
X5795718Y-12683269D02*
X5700480Y-12702317D01*
X5871908Y-12759460D02*
X5890956Y-12768984D01*
X5890956Y-12768984D02*
X5929051Y-12768984D01*
X5929051Y-12768984D02*
X5948099Y-12759460D01*
X5948099Y-12759460D02*
X5957622Y-12740412D01*
X5957622Y-12740412D02*
X5957622Y-12730888D01*
X5957622Y-12730888D02*
X5948099Y-12711841D01*
X5948099Y-12711841D02*
X5929051Y-12702317D01*
X5929051Y-12702317D02*
X5900480Y-12702317D01*
X5900480Y-12702317D02*
X5881432Y-12692793D01*
X5881432Y-12692793D02*
X5871908Y-12673746D01*
X5871908Y-12673746D02*
X5871908Y-12664222D01*
X5871908Y-12664222D02*
X5881432Y-12645174D01*
X5881432Y-12645174D02*
X5900480Y-12635650D01*
X5900480Y-12635650D02*
X5929051Y-12635650D01*
X5929051Y-12635650D02*
X5948099Y-12645174D01*
X6024289Y-12845174D02*
X6033813Y-12835650D01*
X6033813Y-12835650D02*
X6052861Y-12807079D01*
X6052861Y-12807079D02*
X6062384Y-12788031D01*
X6062384Y-12788031D02*
X6071908Y-12759460D01*
X6071908Y-12759460D02*
X6081432Y-12711841D01*
X6081432Y-12711841D02*
X6081432Y-12673746D01*
X6081432Y-12673746D02*
X6071908Y-12626127D01*
X6071908Y-12626127D02*
X6062384Y-12597555D01*
X6062384Y-12597555D02*
X6052861Y-12578508D01*
X6052861Y-12578508D02*
X6033813Y-12549936D01*
X6033813Y-12549936D02*
X6024289Y-12540412D01*
D13*
X1008750Y-12891500D02*
X1008750Y-12991500D01*
X958750Y-12941500D02*
X1058750Y-12941500D01*
D10*
X1424289Y-13032984D02*
X1310003Y-13032984D01*
X1367146Y-13032984D02*
X1367146Y-12832984D01*
X1367146Y-12832984D02*
X1348098Y-12861555D01*
X1348098Y-12861555D02*
X1329051Y-12880603D01*
X1329051Y-12880603D02*
X1310003Y-12890127D01*
X1510003Y-13013936D02*
X1519527Y-13023460D01*
X1519527Y-13023460D02*
X1510003Y-13032984D01*
X1510003Y-13032984D02*
X1500479Y-13023460D01*
X1500479Y-13023460D02*
X1510003Y-13013936D01*
X1510003Y-13013936D02*
X1510003Y-13032984D01*
X1643336Y-12832984D02*
X1662384Y-12832984D01*
X1662384Y-12832984D02*
X1681432Y-12842508D01*
X1681432Y-12842508D02*
X1690955Y-12852031D01*
X1690955Y-12852031D02*
X1700479Y-12871079D01*
X1700479Y-12871079D02*
X1710003Y-12909174D01*
X1710003Y-12909174D02*
X1710003Y-12956793D01*
X1710003Y-12956793D02*
X1700479Y-12994888D01*
X1700479Y-12994888D02*
X1690955Y-13013936D01*
X1690955Y-13013936D02*
X1681432Y-13023460D01*
X1681432Y-13023460D02*
X1662384Y-13032984D01*
X1662384Y-13032984D02*
X1643336Y-13032984D01*
X1643336Y-13032984D02*
X1624289Y-13023460D01*
X1624289Y-13023460D02*
X1614765Y-13013936D01*
X1614765Y-13013936D02*
X1605241Y-12994888D01*
X1605241Y-12994888D02*
X1595717Y-12956793D01*
X1595717Y-12956793D02*
X1595717Y-12909174D01*
X1595717Y-12909174D02*
X1605241Y-12871079D01*
X1605241Y-12871079D02*
X1614765Y-12852031D01*
X1614765Y-12852031D02*
X1624289Y-12842508D01*
X1624289Y-12842508D02*
X1643336Y-12832984D01*
X1833812Y-12832984D02*
X1852860Y-12832984D01*
X1852860Y-12832984D02*
X1871908Y-12842508D01*
X1871908Y-12842508D02*
X1881432Y-12852031D01*
X1881432Y-12852031D02*
X1890955Y-12871079D01*
X1890955Y-12871079D02*
X1900479Y-12909174D01*
X1900479Y-12909174D02*
X1900479Y-12956793D01*
X1900479Y-12956793D02*
X1890955Y-12994888D01*
X1890955Y-12994888D02*
X1881432Y-13013936D01*
X1881432Y-13013936D02*
X1871908Y-13023460D01*
X1871908Y-13023460D02*
X1852860Y-13032984D01*
X1852860Y-13032984D02*
X1833812Y-13032984D01*
X1833812Y-13032984D02*
X1814765Y-13023460D01*
X1814765Y-13023460D02*
X1805241Y-13013936D01*
X1805241Y-13013936D02*
X1795717Y-12994888D01*
X1795717Y-12994888D02*
X1786193Y-12956793D01*
X1786193Y-12956793D02*
X1786193Y-12909174D01*
X1786193Y-12909174D02*
X1795717Y-12871079D01*
X1795717Y-12871079D02*
X1805241Y-12852031D01*
X1805241Y-12852031D02*
X1814765Y-12842508D01*
X1814765Y-12842508D02*
X1833812Y-12832984D01*
X2024289Y-12832984D02*
X2043336Y-12832984D01*
X2043336Y-12832984D02*
X2062384Y-12842508D01*
X2062384Y-12842508D02*
X2071908Y-12852031D01*
X2071908Y-12852031D02*
X2081432Y-12871079D01*
X2081432Y-12871079D02*
X2090955Y-12909174D01*
X2090955Y-12909174D02*
X2090955Y-12956793D01*
X2090955Y-12956793D02*
X2081432Y-12994888D01*
X2081432Y-12994888D02*
X2071908Y-13013936D01*
X2071908Y-13013936D02*
X2062384Y-13023460D01*
X2062384Y-13023460D02*
X2043336Y-13032984D01*
X2043336Y-13032984D02*
X2024289Y-13032984D01*
X2024289Y-13032984D02*
X2005241Y-13023460D01*
X2005241Y-13023460D02*
X1995717Y-13013936D01*
X1995717Y-13013936D02*
X1986193Y-12994888D01*
X1986193Y-12994888D02*
X1976670Y-12956793D01*
X1976670Y-12956793D02*
X1976670Y-12909174D01*
X1976670Y-12909174D02*
X1986193Y-12871079D01*
X1986193Y-12871079D02*
X1995717Y-12852031D01*
X1995717Y-12852031D02*
X2005241Y-12842508D01*
X2005241Y-12842508D02*
X2024289Y-12832984D01*
X2176670Y-13032984D02*
X2176670Y-12899650D01*
X2176670Y-12918698D02*
X2186194Y-12909174D01*
X2186194Y-12909174D02*
X2205241Y-12899650D01*
X2205241Y-12899650D02*
X2233813Y-12899650D01*
X2233813Y-12899650D02*
X2252860Y-12909174D01*
X2252860Y-12909174D02*
X2262384Y-12928222D01*
X2262384Y-12928222D02*
X2262384Y-13032984D01*
X2262384Y-12928222D02*
X2271908Y-12909174D01*
X2271908Y-12909174D02*
X2290955Y-12899650D01*
X2290955Y-12899650D02*
X2319527Y-12899650D01*
X2319527Y-12899650D02*
X2338575Y-12909174D01*
X2338575Y-12909174D02*
X2348098Y-12928222D01*
X2348098Y-12928222D02*
X2348098Y-13032984D01*
X2443336Y-13032984D02*
X2443336Y-12899650D01*
X2443336Y-12918698D02*
X2452860Y-12909174D01*
X2452860Y-12909174D02*
X2471908Y-12899650D01*
X2471908Y-12899650D02*
X2500479Y-12899650D01*
X2500479Y-12899650D02*
X2519527Y-12909174D01*
X2519527Y-12909174D02*
X2529051Y-12928222D01*
X2529051Y-12928222D02*
X2529051Y-13032984D01*
X2529051Y-12928222D02*
X2538575Y-12909174D01*
X2538575Y-12909174D02*
X2557622Y-12899650D01*
X2557622Y-12899650D02*
X2586194Y-12899650D01*
X2586194Y-12899650D02*
X2605241Y-12909174D01*
X2605241Y-12909174D02*
X2614765Y-12928222D01*
X2614765Y-12928222D02*
X2614765Y-13032984D01*
X3005241Y-12823460D02*
X2833813Y-13080603D01*
X3262384Y-12832984D02*
X3281432Y-12832984D01*
X3281432Y-12832984D02*
X3300479Y-12842508D01*
X3300479Y-12842508D02*
X3310003Y-12852031D01*
X3310003Y-12852031D02*
X3319527Y-12871079D01*
X3319527Y-12871079D02*
X3329051Y-12909174D01*
X3329051Y-12909174D02*
X3329051Y-12956793D01*
X3329051Y-12956793D02*
X3319527Y-12994888D01*
X3319527Y-12994888D02*
X3310003Y-13013936D01*
X3310003Y-13013936D02*
X3300479Y-13023460D01*
X3300479Y-13023460D02*
X3281432Y-13032984D01*
X3281432Y-13032984D02*
X3262384Y-13032984D01*
X3262384Y-13032984D02*
X3243336Y-13023460D01*
X3243336Y-13023460D02*
X3233813Y-13013936D01*
X3233813Y-13013936D02*
X3224289Y-12994888D01*
X3224289Y-12994888D02*
X3214765Y-12956793D01*
X3214765Y-12956793D02*
X3214765Y-12909174D01*
X3214765Y-12909174D02*
X3224289Y-12871079D01*
X3224289Y-12871079D02*
X3233813Y-12852031D01*
X3233813Y-12852031D02*
X3243336Y-12842508D01*
X3243336Y-12842508D02*
X3262384Y-12832984D01*
X3414765Y-13013936D02*
X3424289Y-13023460D01*
X3424289Y-13023460D02*
X3414765Y-13032984D01*
X3414765Y-13032984D02*
X3405241Y-13023460D01*
X3405241Y-13023460D02*
X3414765Y-13013936D01*
X3414765Y-13013936D02*
X3414765Y-13032984D01*
X3548098Y-12832984D02*
X3567146Y-12832984D01*
X3567146Y-12832984D02*
X3586194Y-12842508D01*
X3586194Y-12842508D02*
X3595717Y-12852031D01*
X3595717Y-12852031D02*
X3605241Y-12871079D01*
X3605241Y-12871079D02*
X3614765Y-12909174D01*
X3614765Y-12909174D02*
X3614765Y-12956793D01*
X3614765Y-12956793D02*
X3605241Y-12994888D01*
X3605241Y-12994888D02*
X3595717Y-13013936D01*
X3595717Y-13013936D02*
X3586194Y-13023460D01*
X3586194Y-13023460D02*
X3567146Y-13032984D01*
X3567146Y-13032984D02*
X3548098Y-13032984D01*
X3548098Y-13032984D02*
X3529051Y-13023460D01*
X3529051Y-13023460D02*
X3519527Y-13013936D01*
X3519527Y-13013936D02*
X3510003Y-12994888D01*
X3510003Y-12994888D02*
X3500479Y-12956793D01*
X3500479Y-12956793D02*
X3500479Y-12909174D01*
X3500479Y-12909174D02*
X3510003Y-12871079D01*
X3510003Y-12871079D02*
X3519527Y-12852031D01*
X3519527Y-12852031D02*
X3529051Y-12842508D01*
X3529051Y-12842508D02*
X3548098Y-12832984D01*
X3681432Y-12832984D02*
X3805241Y-12832984D01*
X3805241Y-12832984D02*
X3738575Y-12909174D01*
X3738575Y-12909174D02*
X3767146Y-12909174D01*
X3767146Y-12909174D02*
X3786194Y-12918698D01*
X3786194Y-12918698D02*
X3795717Y-12928222D01*
X3795717Y-12928222D02*
X3805241Y-12947269D01*
X3805241Y-12947269D02*
X3805241Y-12994888D01*
X3805241Y-12994888D02*
X3795717Y-13013936D01*
X3795717Y-13013936D02*
X3786194Y-13023460D01*
X3786194Y-13023460D02*
X3767146Y-13032984D01*
X3767146Y-13032984D02*
X3710003Y-13032984D01*
X3710003Y-13032984D02*
X3690956Y-13023460D01*
X3690956Y-13023460D02*
X3681432Y-13013936D01*
X3900479Y-13032984D02*
X3938575Y-13032984D01*
X3938575Y-13032984D02*
X3957622Y-13023460D01*
X3957622Y-13023460D02*
X3967146Y-13013936D01*
X3967146Y-13013936D02*
X3986194Y-12985365D01*
X3986194Y-12985365D02*
X3995717Y-12947269D01*
X3995717Y-12947269D02*
X3995717Y-12871079D01*
X3995717Y-12871079D02*
X3986194Y-12852031D01*
X3986194Y-12852031D02*
X3976670Y-12842508D01*
X3976670Y-12842508D02*
X3957622Y-12832984D01*
X3957622Y-12832984D02*
X3919527Y-12832984D01*
X3919527Y-12832984D02*
X3900479Y-12842508D01*
X3900479Y-12842508D02*
X3890956Y-12852031D01*
X3890956Y-12852031D02*
X3881432Y-12871079D01*
X3881432Y-12871079D02*
X3881432Y-12918698D01*
X3881432Y-12918698D02*
X3890956Y-12937746D01*
X3890956Y-12937746D02*
X3900479Y-12947269D01*
X3900479Y-12947269D02*
X3919527Y-12956793D01*
X3919527Y-12956793D02*
X3957622Y-12956793D01*
X3957622Y-12956793D02*
X3976670Y-12947269D01*
X3976670Y-12947269D02*
X3986194Y-12937746D01*
X3986194Y-12937746D02*
X3995717Y-12918698D01*
X4167146Y-12899650D02*
X4167146Y-13032984D01*
X4119527Y-12823460D02*
X4071908Y-12966317D01*
X4071908Y-12966317D02*
X4195718Y-12966317D01*
X4262384Y-12832984D02*
X4262384Y-12871079D01*
X4338575Y-12832984D02*
X4338575Y-12871079D01*
X4633813Y-13109174D02*
X4624289Y-13099650D01*
X4624289Y-13099650D02*
X4605241Y-13071079D01*
X4605241Y-13071079D02*
X4595718Y-13052031D01*
X4595718Y-13052031D02*
X4586194Y-13023460D01*
X4586194Y-13023460D02*
X4576670Y-12975841D01*
X4576670Y-12975841D02*
X4576670Y-12937746D01*
X4576670Y-12937746D02*
X4586194Y-12890127D01*
X4586194Y-12890127D02*
X4595718Y-12861555D01*
X4595718Y-12861555D02*
X4605241Y-12842508D01*
X4605241Y-12842508D02*
X4624289Y-12813936D01*
X4624289Y-12813936D02*
X4633813Y-12804412D01*
X4748099Y-12832984D02*
X4767146Y-12832984D01*
X4767146Y-12832984D02*
X4786194Y-12842508D01*
X4786194Y-12842508D02*
X4795718Y-12852031D01*
X4795718Y-12852031D02*
X4805241Y-12871079D01*
X4805241Y-12871079D02*
X4814765Y-12909174D01*
X4814765Y-12909174D02*
X4814765Y-12956793D01*
X4814765Y-12956793D02*
X4805241Y-12994888D01*
X4805241Y-12994888D02*
X4795718Y-13013936D01*
X4795718Y-13013936D02*
X4786194Y-13023460D01*
X4786194Y-13023460D02*
X4767146Y-13032984D01*
X4767146Y-13032984D02*
X4748099Y-13032984D01*
X4748099Y-13032984D02*
X4729051Y-13023460D01*
X4729051Y-13023460D02*
X4719527Y-13013936D01*
X4719527Y-13013936D02*
X4710003Y-12994888D01*
X4710003Y-12994888D02*
X4700480Y-12956793D01*
X4700480Y-12956793D02*
X4700480Y-12909174D01*
X4700480Y-12909174D02*
X4710003Y-12871079D01*
X4710003Y-12871079D02*
X4719527Y-12852031D01*
X4719527Y-12852031D02*
X4729051Y-12842508D01*
X4729051Y-12842508D02*
X4748099Y-12832984D01*
X5052861Y-13032984D02*
X5052861Y-12832984D01*
X5138575Y-13032984D02*
X5138575Y-12928222D01*
X5138575Y-12928222D02*
X5129051Y-12909174D01*
X5129051Y-12909174D02*
X5110003Y-12899650D01*
X5110003Y-12899650D02*
X5081432Y-12899650D01*
X5081432Y-12899650D02*
X5062384Y-12909174D01*
X5062384Y-12909174D02*
X5052861Y-12918698D01*
X5262384Y-13032984D02*
X5243337Y-13023460D01*
X5243337Y-13023460D02*
X5233813Y-13013936D01*
X5233813Y-13013936D02*
X5224289Y-12994888D01*
X5224289Y-12994888D02*
X5224289Y-12937746D01*
X5224289Y-12937746D02*
X5233813Y-12918698D01*
X5233813Y-12918698D02*
X5243337Y-12909174D01*
X5243337Y-12909174D02*
X5262384Y-12899650D01*
X5262384Y-12899650D02*
X5290956Y-12899650D01*
X5290956Y-12899650D02*
X5310003Y-12909174D01*
X5310003Y-12909174D02*
X5319527Y-12918698D01*
X5319527Y-12918698D02*
X5329051Y-12937746D01*
X5329051Y-12937746D02*
X5329051Y-12994888D01*
X5329051Y-12994888D02*
X5319527Y-13013936D01*
X5319527Y-13013936D02*
X5310003Y-13023460D01*
X5310003Y-13023460D02*
X5290956Y-13032984D01*
X5290956Y-13032984D02*
X5262384Y-13032984D01*
X5443337Y-13032984D02*
X5424289Y-13023460D01*
X5424289Y-13023460D02*
X5414765Y-13004412D01*
X5414765Y-13004412D02*
X5414765Y-12832984D01*
X5595718Y-13023460D02*
X5576670Y-13032984D01*
X5576670Y-13032984D02*
X5538575Y-13032984D01*
X5538575Y-13032984D02*
X5519527Y-13023460D01*
X5519527Y-13023460D02*
X5510003Y-13004412D01*
X5510003Y-13004412D02*
X5510003Y-12928222D01*
X5510003Y-12928222D02*
X5519527Y-12909174D01*
X5519527Y-12909174D02*
X5538575Y-12899650D01*
X5538575Y-12899650D02*
X5576670Y-12899650D01*
X5576670Y-12899650D02*
X5595718Y-12909174D01*
X5595718Y-12909174D02*
X5605241Y-12928222D01*
X5605241Y-12928222D02*
X5605241Y-12947269D01*
X5605241Y-12947269D02*
X5510003Y-12966317D01*
X5681432Y-13023460D02*
X5700480Y-13032984D01*
X5700480Y-13032984D02*
X5738575Y-13032984D01*
X5738575Y-13032984D02*
X5757622Y-13023460D01*
X5757622Y-13023460D02*
X5767146Y-13004412D01*
X5767146Y-13004412D02*
X5767146Y-12994888D01*
X5767146Y-12994888D02*
X5757622Y-12975841D01*
X5757622Y-12975841D02*
X5738575Y-12966317D01*
X5738575Y-12966317D02*
X5710003Y-12966317D01*
X5710003Y-12966317D02*
X5690956Y-12956793D01*
X5690956Y-12956793D02*
X5681432Y-12937746D01*
X5681432Y-12937746D02*
X5681432Y-12928222D01*
X5681432Y-12928222D02*
X5690956Y-12909174D01*
X5690956Y-12909174D02*
X5710003Y-12899650D01*
X5710003Y-12899650D02*
X5738575Y-12899650D01*
X5738575Y-12899650D02*
X5757622Y-12909174D01*
X6005242Y-12956793D02*
X6157623Y-12956793D01*
X6081432Y-13032984D02*
X6081432Y-12880603D01*
X6433813Y-12918698D02*
X6414765Y-12909174D01*
X6414765Y-12909174D02*
X6405242Y-12899650D01*
X6405242Y-12899650D02*
X6395718Y-12880603D01*
X6395718Y-12880603D02*
X6395718Y-12871079D01*
X6395718Y-12871079D02*
X6405242Y-12852031D01*
X6405242Y-12852031D02*
X6414765Y-12842508D01*
X6414765Y-12842508D02*
X6433813Y-12832984D01*
X6433813Y-12832984D02*
X6471908Y-12832984D01*
X6471908Y-12832984D02*
X6490956Y-12842508D01*
X6490956Y-12842508D02*
X6500480Y-12852031D01*
X6500480Y-12852031D02*
X6510003Y-12871079D01*
X6510003Y-12871079D02*
X6510003Y-12880603D01*
X6510003Y-12880603D02*
X6500480Y-12899650D01*
X6500480Y-12899650D02*
X6490956Y-12909174D01*
X6490956Y-12909174D02*
X6471908Y-12918698D01*
X6471908Y-12918698D02*
X6433813Y-12918698D01*
X6433813Y-12918698D02*
X6414765Y-12928222D01*
X6414765Y-12928222D02*
X6405242Y-12937746D01*
X6405242Y-12937746D02*
X6395718Y-12956793D01*
X6395718Y-12956793D02*
X6395718Y-12994888D01*
X6395718Y-12994888D02*
X6405242Y-13013936D01*
X6405242Y-13013936D02*
X6414765Y-13023460D01*
X6414765Y-13023460D02*
X6433813Y-13032984D01*
X6433813Y-13032984D02*
X6471908Y-13032984D01*
X6471908Y-13032984D02*
X6490956Y-13023460D01*
X6490956Y-13023460D02*
X6500480Y-13013936D01*
X6500480Y-13013936D02*
X6510003Y-12994888D01*
X6510003Y-12994888D02*
X6510003Y-12956793D01*
X6510003Y-12956793D02*
X6500480Y-12937746D01*
X6500480Y-12937746D02*
X6490956Y-12928222D01*
X6490956Y-12928222D02*
X6471908Y-12918698D01*
X6738575Y-13023460D02*
X6757623Y-13032984D01*
X6757623Y-13032984D02*
X6795718Y-13032984D01*
X6795718Y-13032984D02*
X6814765Y-13023460D01*
X6814765Y-13023460D02*
X6824289Y-13004412D01*
X6824289Y-13004412D02*
X6824289Y-12994888D01*
X6824289Y-12994888D02*
X6814765Y-12975841D01*
X6814765Y-12975841D02*
X6795718Y-12966317D01*
X6795718Y-12966317D02*
X6767146Y-12966317D01*
X6767146Y-12966317D02*
X6748099Y-12956793D01*
X6748099Y-12956793D02*
X6738575Y-12937746D01*
X6738575Y-12937746D02*
X6738575Y-12928222D01*
X6738575Y-12928222D02*
X6748099Y-12909174D01*
X6748099Y-12909174D02*
X6767146Y-12899650D01*
X6767146Y-12899650D02*
X6795718Y-12899650D01*
X6795718Y-12899650D02*
X6814765Y-12909174D01*
X6938575Y-13032984D02*
X6919527Y-13023460D01*
X6919527Y-13023460D02*
X6910004Y-13004412D01*
X6910004Y-13004412D02*
X6910004Y-12832984D01*
X7043337Y-13032984D02*
X7024289Y-13023460D01*
X7024289Y-13023460D02*
X7014765Y-13013936D01*
X7014765Y-13013936D02*
X7005242Y-12994888D01*
X7005242Y-12994888D02*
X7005242Y-12937746D01*
X7005242Y-12937746D02*
X7014765Y-12918698D01*
X7014765Y-12918698D02*
X7024289Y-12909174D01*
X7024289Y-12909174D02*
X7043337Y-12899650D01*
X7043337Y-12899650D02*
X7071908Y-12899650D01*
X7071908Y-12899650D02*
X7090956Y-12909174D01*
X7090956Y-12909174D02*
X7100480Y-12918698D01*
X7100480Y-12918698D02*
X7110004Y-12937746D01*
X7110004Y-12937746D02*
X7110004Y-12994888D01*
X7110004Y-12994888D02*
X7100480Y-13013936D01*
X7100480Y-13013936D02*
X7090956Y-13023460D01*
X7090956Y-13023460D02*
X7071908Y-13032984D01*
X7071908Y-13032984D02*
X7043337Y-13032984D01*
X7167146Y-12899650D02*
X7243337Y-12899650D01*
X7195718Y-12832984D02*
X7195718Y-13004412D01*
X7195718Y-13004412D02*
X7205242Y-13023460D01*
X7205242Y-13023460D02*
X7224289Y-13032984D01*
X7224289Y-13032984D02*
X7243337Y-13032984D01*
X7300480Y-13023460D02*
X7319527Y-13032984D01*
X7319527Y-13032984D02*
X7357623Y-13032984D01*
X7357623Y-13032984D02*
X7376670Y-13023460D01*
X7376670Y-13023460D02*
X7386194Y-13004412D01*
X7386194Y-13004412D02*
X7386194Y-12994888D01*
X7386194Y-12994888D02*
X7376670Y-12975841D01*
X7376670Y-12975841D02*
X7357623Y-12966317D01*
X7357623Y-12966317D02*
X7329051Y-12966317D01*
X7329051Y-12966317D02*
X7310004Y-12956793D01*
X7310004Y-12956793D02*
X7300480Y-12937746D01*
X7300480Y-12937746D02*
X7300480Y-12928222D01*
X7300480Y-12928222D02*
X7310004Y-12909174D01*
X7310004Y-12909174D02*
X7329051Y-12899650D01*
X7329051Y-12899650D02*
X7357623Y-12899650D01*
X7357623Y-12899650D02*
X7376670Y-12909174D01*
X7452861Y-13109174D02*
X7462385Y-13099650D01*
X7462385Y-13099650D02*
X7481432Y-13071079D01*
X7481432Y-13071079D02*
X7490956Y-13052031D01*
X7490956Y-13052031D02*
X7500480Y-13023460D01*
X7500480Y-13023460D02*
X7510004Y-12975841D01*
X7510004Y-12975841D02*
X7510004Y-12937746D01*
X7510004Y-12937746D02*
X7500480Y-12890127D01*
X7500480Y-12890127D02*
X7490956Y-12861555D01*
X7490956Y-12861555D02*
X7481432Y-12842508D01*
X7481432Y-12842508D02*
X7462385Y-12813936D01*
X7462385Y-12813936D02*
X7452861Y-12804412D01*
D14*
X1039712Y-13251462D02*
X1039712Y-13159538D01*
X947788Y-13159538D01*
X947788Y-13251462D01*
X1039712Y-13251462D01*
D10*
X1424289Y-13296984D02*
X1310003Y-13296984D01*
X1367146Y-13296984D02*
X1367146Y-13096984D01*
X1367146Y-13096984D02*
X1348098Y-13125555D01*
X1348098Y-13125555D02*
X1329051Y-13144603D01*
X1329051Y-13144603D02*
X1310003Y-13154127D01*
X1510003Y-13277936D02*
X1519527Y-13287460D01*
X1519527Y-13287460D02*
X1510003Y-13296984D01*
X1510003Y-13296984D02*
X1500479Y-13287460D01*
X1500479Y-13287460D02*
X1510003Y-13277936D01*
X1510003Y-13277936D02*
X1510003Y-13296984D01*
X1586193Y-13096984D02*
X1710003Y-13096984D01*
X1710003Y-13096984D02*
X1643336Y-13173174D01*
X1643336Y-13173174D02*
X1671908Y-13173174D01*
X1671908Y-13173174D02*
X1690955Y-13182698D01*
X1690955Y-13182698D02*
X1700479Y-13192222D01*
X1700479Y-13192222D02*
X1710003Y-13211269D01*
X1710003Y-13211269D02*
X1710003Y-13258888D01*
X1710003Y-13258888D02*
X1700479Y-13277936D01*
X1700479Y-13277936D02*
X1690955Y-13287460D01*
X1690955Y-13287460D02*
X1671908Y-13296984D01*
X1671908Y-13296984D02*
X1614765Y-13296984D01*
X1614765Y-13296984D02*
X1595717Y-13287460D01*
X1595717Y-13287460D02*
X1586193Y-13277936D01*
X1833812Y-13096984D02*
X1852860Y-13096984D01*
X1852860Y-13096984D02*
X1871908Y-13106508D01*
X1871908Y-13106508D02*
X1881432Y-13116031D01*
X1881432Y-13116031D02*
X1890955Y-13135079D01*
X1890955Y-13135079D02*
X1900479Y-13173174D01*
X1900479Y-13173174D02*
X1900479Y-13220793D01*
X1900479Y-13220793D02*
X1890955Y-13258888D01*
X1890955Y-13258888D02*
X1881432Y-13277936D01*
X1881432Y-13277936D02*
X1871908Y-13287460D01*
X1871908Y-13287460D02*
X1852860Y-13296984D01*
X1852860Y-13296984D02*
X1833812Y-13296984D01*
X1833812Y-13296984D02*
X1814765Y-13287460D01*
X1814765Y-13287460D02*
X1805241Y-13277936D01*
X1805241Y-13277936D02*
X1795717Y-13258888D01*
X1795717Y-13258888D02*
X1786193Y-13220793D01*
X1786193Y-13220793D02*
X1786193Y-13173174D01*
X1786193Y-13173174D02*
X1795717Y-13135079D01*
X1795717Y-13135079D02*
X1805241Y-13116031D01*
X1805241Y-13116031D02*
X1814765Y-13106508D01*
X1814765Y-13106508D02*
X1833812Y-13096984D01*
X2024289Y-13096984D02*
X2043336Y-13096984D01*
X2043336Y-13096984D02*
X2062384Y-13106508D01*
X2062384Y-13106508D02*
X2071908Y-13116031D01*
X2071908Y-13116031D02*
X2081432Y-13135079D01*
X2081432Y-13135079D02*
X2090955Y-13173174D01*
X2090955Y-13173174D02*
X2090955Y-13220793D01*
X2090955Y-13220793D02*
X2081432Y-13258888D01*
X2081432Y-13258888D02*
X2071908Y-13277936D01*
X2071908Y-13277936D02*
X2062384Y-13287460D01*
X2062384Y-13287460D02*
X2043336Y-13296984D01*
X2043336Y-13296984D02*
X2024289Y-13296984D01*
X2024289Y-13296984D02*
X2005241Y-13287460D01*
X2005241Y-13287460D02*
X1995717Y-13277936D01*
X1995717Y-13277936D02*
X1986193Y-13258888D01*
X1986193Y-13258888D02*
X1976670Y-13220793D01*
X1976670Y-13220793D02*
X1976670Y-13173174D01*
X1976670Y-13173174D02*
X1986193Y-13135079D01*
X1986193Y-13135079D02*
X1995717Y-13116031D01*
X1995717Y-13116031D02*
X2005241Y-13106508D01*
X2005241Y-13106508D02*
X2024289Y-13096984D01*
X2176670Y-13296984D02*
X2176670Y-13163650D01*
X2176670Y-13182698D02*
X2186194Y-13173174D01*
X2186194Y-13173174D02*
X2205241Y-13163650D01*
X2205241Y-13163650D02*
X2233813Y-13163650D01*
X2233813Y-13163650D02*
X2252860Y-13173174D01*
X2252860Y-13173174D02*
X2262384Y-13192222D01*
X2262384Y-13192222D02*
X2262384Y-13296984D01*
X2262384Y-13192222D02*
X2271908Y-13173174D01*
X2271908Y-13173174D02*
X2290955Y-13163650D01*
X2290955Y-13163650D02*
X2319527Y-13163650D01*
X2319527Y-13163650D02*
X2338575Y-13173174D01*
X2338575Y-13173174D02*
X2348098Y-13192222D01*
X2348098Y-13192222D02*
X2348098Y-13296984D01*
X2443336Y-13296984D02*
X2443336Y-13163650D01*
X2443336Y-13182698D02*
X2452860Y-13173174D01*
X2452860Y-13173174D02*
X2471908Y-13163650D01*
X2471908Y-13163650D02*
X2500479Y-13163650D01*
X2500479Y-13163650D02*
X2519527Y-13173174D01*
X2519527Y-13173174D02*
X2529051Y-13192222D01*
X2529051Y-13192222D02*
X2529051Y-13296984D01*
X2529051Y-13192222D02*
X2538575Y-13173174D01*
X2538575Y-13173174D02*
X2557622Y-13163650D01*
X2557622Y-13163650D02*
X2586194Y-13163650D01*
X2586194Y-13163650D02*
X2605241Y-13173174D01*
X2605241Y-13173174D02*
X2614765Y-13192222D01*
X2614765Y-13192222D02*
X2614765Y-13296984D01*
X3005241Y-13087460D02*
X2833813Y-13344603D01*
X3262384Y-13096984D02*
X3281432Y-13096984D01*
X3281432Y-13096984D02*
X3300479Y-13106508D01*
X3300479Y-13106508D02*
X3310003Y-13116031D01*
X3310003Y-13116031D02*
X3319527Y-13135079D01*
X3319527Y-13135079D02*
X3329051Y-13173174D01*
X3329051Y-13173174D02*
X3329051Y-13220793D01*
X3329051Y-13220793D02*
X3319527Y-13258888D01*
X3319527Y-13258888D02*
X3310003Y-13277936D01*
X3310003Y-13277936D02*
X3300479Y-13287460D01*
X3300479Y-13287460D02*
X3281432Y-13296984D01*
X3281432Y-13296984D02*
X3262384Y-13296984D01*
X3262384Y-13296984D02*
X3243336Y-13287460D01*
X3243336Y-13287460D02*
X3233813Y-13277936D01*
X3233813Y-13277936D02*
X3224289Y-13258888D01*
X3224289Y-13258888D02*
X3214765Y-13220793D01*
X3214765Y-13220793D02*
X3214765Y-13173174D01*
X3214765Y-13173174D02*
X3224289Y-13135079D01*
X3224289Y-13135079D02*
X3233813Y-13116031D01*
X3233813Y-13116031D02*
X3243336Y-13106508D01*
X3243336Y-13106508D02*
X3262384Y-13096984D01*
X3414765Y-13277936D02*
X3424289Y-13287460D01*
X3424289Y-13287460D02*
X3414765Y-13296984D01*
X3414765Y-13296984D02*
X3405241Y-13287460D01*
X3405241Y-13287460D02*
X3414765Y-13277936D01*
X3414765Y-13277936D02*
X3414765Y-13296984D01*
X3548098Y-13096984D02*
X3567146Y-13096984D01*
X3567146Y-13096984D02*
X3586194Y-13106508D01*
X3586194Y-13106508D02*
X3595717Y-13116031D01*
X3595717Y-13116031D02*
X3605241Y-13135079D01*
X3605241Y-13135079D02*
X3614765Y-13173174D01*
X3614765Y-13173174D02*
X3614765Y-13220793D01*
X3614765Y-13220793D02*
X3605241Y-13258888D01*
X3605241Y-13258888D02*
X3595717Y-13277936D01*
X3595717Y-13277936D02*
X3586194Y-13287460D01*
X3586194Y-13287460D02*
X3567146Y-13296984D01*
X3567146Y-13296984D02*
X3548098Y-13296984D01*
X3548098Y-13296984D02*
X3529051Y-13287460D01*
X3529051Y-13287460D02*
X3519527Y-13277936D01*
X3519527Y-13277936D02*
X3510003Y-13258888D01*
X3510003Y-13258888D02*
X3500479Y-13220793D01*
X3500479Y-13220793D02*
X3500479Y-13173174D01*
X3500479Y-13173174D02*
X3510003Y-13135079D01*
X3510003Y-13135079D02*
X3519527Y-13116031D01*
X3519527Y-13116031D02*
X3529051Y-13106508D01*
X3529051Y-13106508D02*
X3548098Y-13096984D01*
X3795717Y-13096984D02*
X3700479Y-13096984D01*
X3700479Y-13096984D02*
X3690956Y-13192222D01*
X3690956Y-13192222D02*
X3700479Y-13182698D01*
X3700479Y-13182698D02*
X3719527Y-13173174D01*
X3719527Y-13173174D02*
X3767146Y-13173174D01*
X3767146Y-13173174D02*
X3786194Y-13182698D01*
X3786194Y-13182698D02*
X3795717Y-13192222D01*
X3795717Y-13192222D02*
X3805241Y-13211269D01*
X3805241Y-13211269D02*
X3805241Y-13258888D01*
X3805241Y-13258888D02*
X3795717Y-13277936D01*
X3795717Y-13277936D02*
X3786194Y-13287460D01*
X3786194Y-13287460D02*
X3767146Y-13296984D01*
X3767146Y-13296984D02*
X3719527Y-13296984D01*
X3719527Y-13296984D02*
X3700479Y-13287460D01*
X3700479Y-13287460D02*
X3690956Y-13277936D01*
X3995717Y-13296984D02*
X3881432Y-13296984D01*
X3938575Y-13296984D02*
X3938575Y-13096984D01*
X3938575Y-13096984D02*
X3919527Y-13125555D01*
X3919527Y-13125555D02*
X3900479Y-13144603D01*
X3900479Y-13144603D02*
X3881432Y-13154127D01*
X4071908Y-13116031D02*
X4081432Y-13106508D01*
X4081432Y-13106508D02*
X4100479Y-13096984D01*
X4100479Y-13096984D02*
X4148098Y-13096984D01*
X4148098Y-13096984D02*
X4167146Y-13106508D01*
X4167146Y-13106508D02*
X4176670Y-13116031D01*
X4176670Y-13116031D02*
X4186194Y-13135079D01*
X4186194Y-13135079D02*
X4186194Y-13154127D01*
X4186194Y-13154127D02*
X4176670Y-13182698D01*
X4176670Y-13182698D02*
X4062384Y-13296984D01*
X4062384Y-13296984D02*
X4186194Y-13296984D01*
X4262384Y-13096984D02*
X4262384Y-13135079D01*
X4338575Y-13096984D02*
X4338575Y-13135079D01*
X4633813Y-13373174D02*
X4624289Y-13363650D01*
X4624289Y-13363650D02*
X4605241Y-13335079D01*
X4605241Y-13335079D02*
X4595718Y-13316031D01*
X4595718Y-13316031D02*
X4586194Y-13287460D01*
X4586194Y-13287460D02*
X4576670Y-13239841D01*
X4576670Y-13239841D02*
X4576670Y-13201746D01*
X4576670Y-13201746D02*
X4586194Y-13154127D01*
X4586194Y-13154127D02*
X4595718Y-13125555D01*
X4595718Y-13125555D02*
X4605241Y-13106508D01*
X4605241Y-13106508D02*
X4624289Y-13077936D01*
X4624289Y-13077936D02*
X4633813Y-13068412D01*
X4795718Y-13163650D02*
X4795718Y-13296984D01*
X4748099Y-13087460D02*
X4700480Y-13230317D01*
X4700480Y-13230317D02*
X4824289Y-13230317D01*
X5052861Y-13296984D02*
X5052861Y-13096984D01*
X5138575Y-13296984D02*
X5138575Y-13192222D01*
X5138575Y-13192222D02*
X5129051Y-13173174D01*
X5129051Y-13173174D02*
X5110003Y-13163650D01*
X5110003Y-13163650D02*
X5081432Y-13163650D01*
X5081432Y-13163650D02*
X5062384Y-13173174D01*
X5062384Y-13173174D02*
X5052861Y-13182698D01*
X5262384Y-13296984D02*
X5243337Y-13287460D01*
X5243337Y-13287460D02*
X5233813Y-13277936D01*
X5233813Y-13277936D02*
X5224289Y-13258888D01*
X5224289Y-13258888D02*
X5224289Y-13201746D01*
X5224289Y-13201746D02*
X5233813Y-13182698D01*
X5233813Y-13182698D02*
X5243337Y-13173174D01*
X5243337Y-13173174D02*
X5262384Y-13163650D01*
X5262384Y-13163650D02*
X5290956Y-13163650D01*
X5290956Y-13163650D02*
X5310003Y-13173174D01*
X5310003Y-13173174D02*
X5319527Y-13182698D01*
X5319527Y-13182698D02*
X5329051Y-13201746D01*
X5329051Y-13201746D02*
X5329051Y-13258888D01*
X5329051Y-13258888D02*
X5319527Y-13277936D01*
X5319527Y-13277936D02*
X5310003Y-13287460D01*
X5310003Y-13287460D02*
X5290956Y-13296984D01*
X5290956Y-13296984D02*
X5262384Y-13296984D01*
X5443337Y-13296984D02*
X5424289Y-13287460D01*
X5424289Y-13287460D02*
X5414765Y-13268412D01*
X5414765Y-13268412D02*
X5414765Y-13096984D01*
X5595718Y-13287460D02*
X5576670Y-13296984D01*
X5576670Y-13296984D02*
X5538575Y-13296984D01*
X5538575Y-13296984D02*
X5519527Y-13287460D01*
X5519527Y-13287460D02*
X5510003Y-13268412D01*
X5510003Y-13268412D02*
X5510003Y-13192222D01*
X5510003Y-13192222D02*
X5519527Y-13173174D01*
X5519527Y-13173174D02*
X5538575Y-13163650D01*
X5538575Y-13163650D02*
X5576670Y-13163650D01*
X5576670Y-13163650D02*
X5595718Y-13173174D01*
X5595718Y-13173174D02*
X5605241Y-13192222D01*
X5605241Y-13192222D02*
X5605241Y-13211269D01*
X5605241Y-13211269D02*
X5510003Y-13230317D01*
X5681432Y-13287460D02*
X5700480Y-13296984D01*
X5700480Y-13296984D02*
X5738575Y-13296984D01*
X5738575Y-13296984D02*
X5757622Y-13287460D01*
X5757622Y-13287460D02*
X5767146Y-13268412D01*
X5767146Y-13268412D02*
X5767146Y-13258888D01*
X5767146Y-13258888D02*
X5757622Y-13239841D01*
X5757622Y-13239841D02*
X5738575Y-13230317D01*
X5738575Y-13230317D02*
X5710003Y-13230317D01*
X5710003Y-13230317D02*
X5690956Y-13220793D01*
X5690956Y-13220793D02*
X5681432Y-13201746D01*
X5681432Y-13201746D02*
X5681432Y-13192222D01*
X5681432Y-13192222D02*
X5690956Y-13173174D01*
X5690956Y-13173174D02*
X5710003Y-13163650D01*
X5710003Y-13163650D02*
X5738575Y-13163650D01*
X5738575Y-13163650D02*
X5757622Y-13173174D01*
X5833813Y-13373174D02*
X5843337Y-13363650D01*
X5843337Y-13363650D02*
X5862384Y-13335079D01*
X5862384Y-13335079D02*
X5871908Y-13316031D01*
X5871908Y-13316031D02*
X5881432Y-13287460D01*
X5881432Y-13287460D02*
X5890956Y-13239841D01*
X5890956Y-13239841D02*
X5890956Y-13201746D01*
X5890956Y-13201746D02*
X5881432Y-13154127D01*
X5881432Y-13154127D02*
X5871908Y-13125555D01*
X5871908Y-13125555D02*
X5862384Y-13106508D01*
X5862384Y-13106508D02*
X5843337Y-13077936D01*
X5843337Y-13077936D02*
X5833813Y-13068412D01*
M02*
